<?xml version="1.0" encoding="UTF-8"?>
<svg xmlns="http://www.w3.org/2000/svg" xmlns:xlink="http://www.w3.org/1999/xlink" width="600" height="450" viewBox="0 0 600 450">
<defs>
<g>
<g id="glyph-0-0-c8e1e1c5">
<path d="M 8.6875 -2.796875 C 8.6875 -0.984375 7.296875 0.25 4.703125 0.25 C 2.296875 0.25 0.671875 -0.90625 0.671875 -3.3125 C 0.671875 -3.3125 1.90625 -3.3125 1.90625 -3.3125 C 1.90625 -1.859375 2.859375 -0.890625 4.78125 -0.890625 C 6.546875 -0.890625 7.390625 -1.546875 7.390625 -2.671875 C 7.390625 -3.46875 6.796875 -3.984375 5.515625 -4.328125 C 5.515625 -4.328125 2.984375 -5 2.984375 -5 C 1.640625 -5.34375 0.984375 -6.125 0.984375 -7.375 C 0.984375 -9.21875 2.359375 -10.453125 4.609375 -10.453125 C 6.953125 -10.453125 8.34375 -9.296875 8.34375 -7.296875 C 8.34375 -7.296875 7.109375 -7.296875 7.109375 -7.296875 C 7.109375 -8.625 6.1875 -9.359375 4.5625 -9.359375 C 3.1875 -9.359375 2.28125 -8.59375 2.28125 -7.5625 C 2.28125 -6.78125 2.734375 -6.375 3.96875 -6.046875 C 3.96875 -6.046875 6.53125 -5.359375 6.53125 -5.359375 C 7.90625 -4.984375 8.6875 -4.0625 8.6875 -2.796875 Z M 8.6875 -2.796875 "/>
</g>
<g id="glyph-0-1-c8e1e1c5">
<path d="M 7.484375 -0.03125 C 7.109375 0.0625 6.9375 0.09375 6.6875 0.09375 C 6.125 0.09375 5.609375 -0.3125 5.484375 -0.875 C 4.84375 -0.1875 3.9375 0.203125 3 0.203125 C 1.515625 0.203125 0.59375 -0.578125 0.59375 -1.90625 C 0.59375 -2.796875 1.015625 -3.453125 1.875 -3.8125 C 2.328125 -3.984375 2.578125 -4.046875 4.234375 -4.25 C 5.15625 -4.375 5.453125 -4.578125 5.453125 -5.0625 C 5.453125 -5.0625 5.453125 -5.375 5.453125 -5.375 C 5.453125 -6.078125 4.859375 -6.46875 3.8125 -6.46875 C 2.71875 -6.46875 2.1875 -6.0625 2.09375 -5.171875 C 2.09375 -5.171875 0.90625 -5.171875 0.90625 -5.171875 C 0.984375 -6.859375 2.078125 -7.546875 3.84375 -7.546875 C 5.65625 -7.546875 6.609375 -6.84375 6.609375 -5.546875 C 6.609375 -5.546875 6.609375 -1.453125 6.609375 -1.453125 C 6.609375 -1.09375 6.828125 -0.875 7.234375 -0.875 C 7.3125 -0.875 7.359375 -0.875 7.484375 -0.90625 C 7.484375 -0.90625 7.484375 -0.03125 7.484375 -0.03125 Z M 5.453125 -2.53125 C 5.453125 -2.53125 5.453125 -3.625 5.453125 -3.625 C 5.046875 -3.4375 4.796875 -3.390625 3.5625 -3.21875 C 2.328125 -3.03125 1.8125 -2.703125 1.8125 -1.9375 C 1.8125 -1.140625 2.34375 -0.8125 3.25 -0.8125 C 4.375 -0.8125 5.453125 -1.484375 5.453125 -2.53125 Z M 5.453125 -2.53125 "/>
</g>
<g id="glyph-0-2-c8e1e1c5">
<path d="M 10.640625 0 C 10.640625 0 9.484375 0 9.484375 0 C 9.484375 0 9.484375 -5.046875 9.484375 -5.046875 C 9.484375 -5.984375 8.984375 -6.53125 8.140625 -6.53125 C 7.1875 -6.53125 6.390625 -5.671875 6.390625 -4.609375 C 6.390625 -4.609375 6.390625 0 6.390625 0 C 6.390625 0 5.234375 0 5.234375 0 C 5.234375 0 5.234375 -5.046875 5.234375 -5.046875 C 5.234375 -5.984375 4.75 -6.53125 3.875 -6.53125 C 2.921875 -6.53125 2.15625 -5.671875 2.15625 -4.609375 C 2.15625 -4.609375 2.15625 0 2.15625 0 C 2.15625 0 1 0 1 0 C 1 0 1 -7.34375 1 -7.34375 C 1 -7.34375 2.0625 -7.34375 2.0625 -7.34375 C 2.0625 -7.34375 2.0625 -6.296875 2.0625 -6.296875 C 2.6875 -7.1875 3.328125 -7.546875 4.3125 -7.546875 C 5.265625 -7.546875 5.859375 -7.203125 6.28125 -6.421875 C 6.96875 -7.25 7.5625 -7.546875 8.546875 -7.546875 C 9.90625 -7.546875 10.640625 -6.8125 10.640625 -5.5 C 10.640625 -5.5 10.640625 0 10.640625 0 Z M 10.640625 0 "/>
</g>
<g id="glyph-0-3-c8e1e1c5">
<path d="M 7.328125 -3.59375 C 7.328125 -1.265625 6.078125 0.203125 4.1875 0.203125 C 3.234375 0.203125 2.546875 -0.125 1.9375 -0.875 C 1.9375 -0.875 1.9375 3.046875 1.9375 3.046875 C 1.9375 3.046875 0.765625 3.046875 0.765625 3.046875 C 0.765625 3.046875 0.765625 -7.34375 0.765625 -7.34375 C 0.765625 -7.34375 1.828125 -7.34375 1.828125 -7.34375 C 1.828125 -7.34375 1.828125 -6.234375 1.828125 -6.234375 C 2.375 -7.09375 3.171875 -7.546875 4.171875 -7.546875 C 6.125 -7.546875 7.328125 -6.0625 7.328125 -3.59375 Z M 6.109375 -3.625 C 6.109375 -5.375 5.265625 -6.453125 3.96875 -6.453125 C 2.75 -6.453125 1.9375 -5.328125 1.9375 -3.609375 C 1.9375 -1.890625 2.75 -0.875 3.96875 -0.875 C 5.25 -0.875 6.109375 -1.953125 6.109375 -3.625 Z M 6.109375 -3.625 "/>
</g>
<g id="glyph-0-4-c8e1e1c5">
<path d="M 2.109375 0 C 2.109375 0 0.953125 0 0.953125 0 C 0.953125 0 0.953125 -10.203125 0.953125 -10.203125 C 0.953125 -10.203125 2.109375 -10.203125 2.109375 -10.203125 C 2.109375 -10.203125 2.109375 0 2.109375 0 Z M 2.109375 0 "/>
</g>
<g id="glyph-0-5-c8e1e1c5">
<path d="M 7.1875 -3.328125 C 7.1875 -3.328125 1.78125 -3.328125 1.78125 -3.328125 C 1.8125 -1.65625 2.71875 -0.875 3.9375 -0.875 C 4.875 -0.875 5.53125 -1.265625 5.859375 -2.21875 C 5.859375 -2.21875 7.03125 -2.21875 7.03125 -2.21875 C 6.734375 -0.734375 5.578125 0.203125 3.890625 0.203125 C 1.828125 0.203125 0.5625 -1.21875 0.5625 -3.625 C 0.5625 -6.03125 1.875 -7.546875 3.921875 -7.546875 C 5.296875 -7.546875 6.40625 -6.8125 6.890625 -5.609375 C 7.09375 -5.0625 7.1875 -4.390625 7.1875 -3.328125 Z M 5.9375 -4.375 C 5.9375 -5.515625 5.046875 -6.46875 3.90625 -6.46875 C 2.734375 -6.46875 1.90625 -5.59375 1.8125 -4.28125 C 1.8125 -4.28125 5.921875 -4.28125 5.921875 -4.28125 C 5.9375 -4.3125 5.9375 -4.375 5.9375 -4.375 Z M 5.9375 -4.375 "/>
</g>
<g id="glyph-0-6-c8e1e1c5">
</g>
<g id="glyph-0-7-c8e1e1c5">
<path d="M 9.484375 -3.71875 C 9.171875 -1.0625 7.765625 0.25 5.28125 0.25 C 2.28125 0.25 0.671875 -2 0.671875 -4.984375 C 0.671875 -7.96875 2.234375 -10.453125 5.328125 -10.453125 C 7.578125 -10.453125 8.859375 -9.28125 9.265625 -7.046875 C 9.265625 -7.046875 7.9375 -7.046875 7.9375 -7.046875 C 7.609375 -8.59375 6.78125 -9.3125 5.1875 -9.3125 C 3.203125 -9.3125 1.96875 -7.609375 1.96875 -5 C 1.96875 -2.453125 3.265625 -0.890625 5.296875 -0.890625 C 7.015625 -0.890625 7.828125 -1.796875 8.140625 -3.71875 C 8.140625 -3.71875 9.484375 -3.71875 9.484375 -3.71875 Z M 9.484375 -3.71875 "/>
</g>
<g id="glyph-0-8-c8e1e1c5">
<path d="M 7.140625 -3.609375 C 7.140625 -1.203125 5.875 0.203125 3.828125 0.203125 C 1.734375 0.203125 0.5 -1.203125 0.5 -3.671875 C 0.5 -6.125 1.75 -7.546875 3.8125 -7.546875 C 5.921875 -7.546875 7.140625 -6.140625 7.140625 -3.609375 Z M 5.921875 -3.625 C 5.921875 -5.453125 5.140625 -6.46875 3.828125 -6.46875 C 2.515625 -6.46875 1.71875 -5.4375 1.71875 -3.671875 C 1.71875 -1.890625 2.515625 -0.875 3.828125 -0.875 C 5.109375 -0.875 5.921875 -1.90625 5.921875 -3.625 Z M 5.921875 -3.625 "/>
</g>
<g id="glyph-0-9-c8e1e1c5">
<path d="M 6.75 0 C 6.75 0 5.703125 0 5.703125 0 C 5.703125 0 5.703125 -1.140625 5.703125 -1.140625 C 5.015625 -0.171875 4.328125 0.203125 3.25 0.203125 C 1.8125 0.203125 0.90625 -0.578125 0.90625 -1.796875 C 0.90625 -1.796875 0.90625 -7.34375 0.90625 -7.34375 C 0.90625 -7.34375 2.078125 -7.34375 2.078125 -7.34375 C 2.078125 -7.34375 2.078125 -2.25 2.078125 -2.25 C 2.078125 -1.375 2.65625 -0.8125 3.578125 -0.8125 C 4.796875 -0.8125 5.59375 -1.796875 5.59375 -3.296875 C 5.59375 -3.296875 5.59375 -7.34375 5.59375 -7.34375 C 5.59375 -7.34375 6.75 -7.34375 6.75 -7.34375 C 6.75 -7.34375 6.75 0 6.75 0 Z M 6.75 0 "/>
</g>
<g id="glyph-0-10-c8e1e1c5">
<path d="M 6.8125 0 C 6.8125 0 5.65625 0 5.65625 0 C 5.65625 0 5.65625 -5.078125 5.65625 -5.078125 C 5.65625 -5.96875 5.0625 -6.53125 4.140625 -6.53125 C 2.953125 -6.53125 2.140625 -5.546875 2.140625 -4.046875 C 2.140625 -4.046875 2.140625 0 2.140625 0 C 2.140625 0 0.984375 0 0.984375 0 C 0.984375 0 0.984375 -7.34375 0.984375 -7.34375 C 0.984375 -7.34375 2.0625 -7.34375 2.0625 -7.34375 C 2.0625 -7.34375 2.0625 -6.109375 2.0625 -6.109375 C 2.703125 -7.125 3.40625 -7.546875 4.5 -7.546875 C 5.90625 -7.546875 6.8125 -6.765625 6.8125 -5.546875 C 6.8125 -5.546875 6.8125 0 6.8125 0 Z M 6.8125 0 "/>
</g>
<g id="glyph-0-11-c8e1e1c5">
<path d="M 3.5625 0 C 3.15625 0.0625 2.890625 0.09375 2.609375 0.09375 C 1.6875 0.09375 1.1875 -0.328125 1.1875 -1.0625 C 1.1875 -1.0625 1.1875 -6.390625 1.1875 -6.390625 C 1.1875 -6.390625 0.203125 -6.390625 0.203125 -6.390625 C 0.203125 -6.390625 0.203125 -7.34375 0.203125 -7.34375 C 0.203125 -7.34375 1.1875 -7.34375 1.1875 -7.34375 C 1.1875 -7.34375 1.1875 -9.359375 1.1875 -9.359375 C 1.1875 -9.359375 2.359375 -9.359375 2.359375 -9.359375 C 2.359375 -9.359375 2.359375 -7.34375 2.359375 -7.34375 C 2.359375 -7.34375 3.5625 -7.34375 3.5625 -7.34375 C 3.5625 -7.34375 3.5625 -6.390625 3.5625 -6.390625 C 3.5625 -6.390625 2.359375 -6.390625 2.359375 -6.390625 C 2.359375 -6.390625 2.359375 -1.578125 2.359375 -1.578125 C 2.359375 -1.0625 2.484375 -0.921875 3 -0.921875 C 3.21875 -0.921875 3.40625 -0.9375 3.5625 -0.984375 C 3.5625 -0.984375 3.5625 0 3.5625 0 Z M 3.5625 0 "/>
</g>
<g id="glyph-0-12-c8e1e1c5">
<path d="M 7.09375 -4.78125 C 7.09375 -1.515625 5.953125 0.203125 3.84375 0.203125 C 1.71875 0.203125 0.609375 -1.515625 0.609375 -4.859375 C 0.609375 -8.1875 1.703125 -9.921875 3.84375 -9.921875 C 6 -9.921875 7.09375 -8.21875 7.09375 -4.78125 Z M 5.84375 -4.890625 C 5.84375 -7.546875 5.1875 -8.828125 3.84375 -8.828125 C 2.515625 -8.828125 1.859375 -7.5625 1.859375 -4.84375 C 1.859375 -2.125 2.515625 -0.8125 3.828125 -0.8125 C 5.1875 -0.8125 5.84375 -2.078125 5.84375 -4.890625 Z M 5.84375 -4.890625 "/>
</g>
<g id="glyph-0-13-c8e1e1c5">
<path d="M 4.859375 0 C 4.859375 0 3.625 0 3.625 0 C 3.625 0 3.625 -7.0625 3.625 -7.0625 C 3.625 -7.0625 1.421875 -7.0625 1.421875 -7.0625 C 1.421875 -7.0625 1.421875 -7.953125 1.421875 -7.953125 C 3.328125 -8.1875 3.609375 -8.40625 4.046875 -9.921875 C 4.046875 -9.921875 4.859375 -9.921875 4.859375 -9.921875 C 4.859375 -9.921875 4.859375 0 4.859375 0 Z M 4.859375 0 "/>
</g>
<g id="glyph-0-14-c8e1e1c5">
<path d="M 7.15625 -7.015625 C 7.15625 -5.796875 6.4375 -4.765625 5.046875 -4.015625 C 5.046875 -4.015625 3.65625 -3.265625 3.65625 -3.265625 C 2.4375 -2.546875 1.984375 -2.03125 1.859375 -1.21875 C 1.859375 -1.21875 7.078125 -1.21875 7.078125 -1.21875 C 7.078125 -1.21875 7.078125 0 7.078125 0 C 7.078125 0 0.46875 0 0.46875 0 C 0.59375 -2.1875 1.1875 -3.125 3.265625 -4.296875 C 3.265625 -4.296875 4.546875 -5.03125 4.546875 -5.03125 C 5.4375 -5.53125 5.890625 -6.203125 5.890625 -6.984375 C 5.890625 -8.046875 5.046875 -8.84375 3.9375 -8.84375 C 2.71875 -8.84375 2.03125 -8.140625 1.9375 -6.484375 C 1.9375 -6.484375 0.703125 -6.484375 0.703125 -6.484375 C 0.765625 -8.890625 1.953125 -9.921875 3.96875 -9.921875 C 5.859375 -9.921875 7.15625 -8.6875 7.15625 -7.015625 Z M 7.15625 -7.015625 "/>
</g>
<g id="glyph-0-15-c8e1e1c5">
<path d="M 7.078125 -2.890625 C 7.078125 -1.015625 5.765625 0.203125 3.71875 0.203125 C 1.6875 0.203125 0.609375 -0.78125 0.453125 -3 C 0.453125 -3 1.6875 -3 1.6875 -3 C 1.765625 -1.546875 2.421875 -0.875 3.765625 -0.875 C 5.046875 -0.875 5.828125 -1.625 5.828125 -2.875 C 5.828125 -3.96875 5.125 -4.625 3.765625 -4.625 C 3.765625 -4.625 3.09375 -4.625 3.09375 -4.625 C 3.09375 -4.625 3.09375 -5.65625 3.09375 -5.65625 C 5.0625 -5.65625 5.53125 -6.09375 5.53125 -7.15625 C 5.53125 -8.203125 4.875 -8.84375 3.78125 -8.84375 C 2.515625 -8.84375 1.921875 -8.1875 1.890625 -6.71875 C 1.890625 -6.71875 0.65625 -6.71875 0.65625 -6.71875 C 0.703125 -8.828125 1.765625 -9.921875 3.765625 -9.921875 C 5.65625 -9.921875 6.796875 -8.90625 6.796875 -7.203125 C 6.796875 -6.203125 6.328125 -5.5625 5.40625 -5.1875 C 6.59375 -4.78125 7.078125 -4.09375 7.078125 -2.890625 Z M 7.078125 -2.890625 "/>
</g>
<g id="glyph-0-16-c8e1e1c5">
<path d="M 7.28125 -2.375 C 7.28125 -2.375 5.8125 -2.375 5.8125 -2.375 C 5.8125 -2.375 5.8125 0 5.8125 0 C 5.8125 0 4.578125 0 4.578125 0 C 4.578125 0 4.578125 -2.375 4.578125 -2.375 C 4.578125 -2.375 0.390625 -2.375 0.390625 -2.375 C 0.390625 -2.375 0.390625 -3.6875 0.390625 -3.6875 C 0.390625 -3.6875 4.90625 -9.921875 4.90625 -9.921875 C 4.90625 -9.921875 5.8125 -9.921875 5.8125 -9.921875 C 5.8125 -9.921875 5.8125 -3.484375 5.8125 -3.484375 C 5.8125 -3.484375 7.28125 -3.484375 7.28125 -3.484375 C 7.28125 -3.484375 7.28125 -2.375 7.28125 -2.375 Z M 4.578125 -3.484375 C 4.578125 -3.484375 4.578125 -7.828125 4.578125 -7.828125 C 4.578125 -7.828125 1.46875 -3.484375 1.46875 -3.484375 C 1.46875 -3.484375 4.578125 -3.484375 4.578125 -3.484375 Z M 4.578125 -3.484375 "/>
</g>
<g id="glyph-0-17-c8e1e1c5">
<path d="M 7.1875 -2.796875 C 7.1875 -1 5.8125 0.203125 3.84375 0.203125 C 1.890625 0.203125 0.515625 -1 0.515625 -2.8125 C 0.515625 -3.90625 1.078125 -4.671875 2.21875 -5.21875 C 1.203125 -5.859375 0.875 -6.359375 0.875 -7.28125 C 0.875 -8.828125 2.09375 -9.921875 3.84375 -9.921875 C 5.609375 -9.921875 6.828125 -8.828125 6.828125 -7.28125 C 6.828125 -6.34375 6.5 -5.84375 5.46875 -5.21875 C 6.625 -4.671875 7.1875 -3.90625 7.1875 -2.796875 Z M 5.578125 -7.25 C 5.578125 -8.21875 4.90625 -8.828125 3.84375 -8.828125 C 2.8125 -8.828125 2.125 -8.21875 2.125 -7.265625 C 2.125 -6.328125 2.8125 -5.71875 3.84375 -5.71875 C 4.890625 -5.71875 5.578125 -6.328125 5.578125 -7.25 Z M 5.921875 -2.78125 C 5.921875 -3.953125 5.078125 -4.671875 3.84375 -4.671875 C 2.625 -4.671875 1.78125 -3.953125 1.78125 -2.78125 C 1.78125 -1.625 2.625 -0.875 3.828125 -0.875 C 5.078125 -0.875 5.921875 -1.609375 5.921875 -2.78125 Z M 5.921875 -2.78125 "/>
</g>
<g id="glyph-0-18-c8e1e1c5">
<path d="M 2.671875 0 C 2.671875 0 1.21875 0 1.21875 0 C 1.21875 0 1.21875 -1.453125 1.21875 -1.453125 C 1.21875 -1.453125 2.671875 -1.453125 2.671875 -1.453125 C 2.671875 -1.453125 2.671875 0 2.671875 0 Z M 2.671875 0 "/>
</g>
<g id="glyph-1-0-c8e1e1c5">
<path d="M -5.046875 -10.390625 C -3.4375 -10.390625 -2.203125 -9.90625 -1.140625 -8.953125 C -1.140625 -8.953125 -0.0625 -10.265625 -0.0625 -10.265625 C -0.0625 -10.265625 0.75 -9.609375 0.75 -9.609375 C 0.75 -9.609375 -0.46875 -8.140625 -0.46875 -8.140625 C 0.03125 -7.3125 0.25 -6.46875 0.25 -5.453125 C 0.25 -2.515625 -1.828125 -0.53125 -5.03125 -0.53125 C -8.21875 -0.53125 -10.453125 -2.515625 -10.453125 -5.453125 C -10.453125 -8.40625 -8.21875 -10.390625 -5.046875 -10.390625 Z M -5.046875 -9.09375 C -7.546875 -9.09375 -9.3125 -7.625 -9.3125 -5.453125 C -9.3125 -3.296875 -7.546875 -1.828125 -5.03125 -1.828125 C -2.5 -1.828125 -0.890625 -3.28125 -0.890625 -5.453125 C -0.890625 -6.0625 -1.015625 -6.53125 -1.28125 -7.125 C -1.28125 -7.125 -2.15625 -6.09375 -2.15625 -6.09375 C -2.15625 -6.09375 -2.9375 -6.734375 -2.9375 -6.734375 C -2.9375 -6.734375 -1.921875 -7.984375 -1.921875 -7.984375 C -2.765625 -8.734375 -3.71875 -9.09375 -5.046875 -9.09375 Z M -5.046875 -9.09375 "/>
</g>
<g id="glyph-2-0-c8e1e1c5">
<path d="M 0 -6.75 C 0 -6.75 0 -5.703125 0 -5.703125 C 0 -5.703125 -1.140625 -5.703125 -1.140625 -5.703125 C -0.171875 -5.015625 0.203125 -4.328125 0.203125 -3.25 C 0.203125 -1.8125 -0.578125 -0.90625 -1.796875 -0.90625 C -1.796875 -0.90625 -7.34375 -0.90625 -7.34375 -0.90625 C -7.34375 -0.90625 -7.34375 -2.078125 -7.34375 -2.078125 C -7.34375 -2.078125 -2.25 -2.078125 -2.25 -2.078125 C -1.375 -2.078125 -0.8125 -2.65625 -0.8125 -3.578125 C -0.8125 -4.796875 -1.796875 -5.59375 -3.296875 -5.59375 C -3.296875 -5.59375 -7.34375 -5.59375 -7.34375 -5.59375 C -7.34375 -5.59375 -7.34375 -6.75 -7.34375 -6.75 C -7.34375 -6.75 0 -6.75 0 -6.75 Z M 0 -6.75 "/>
</g>
<g id="glyph-3-0-c8e1e1c5">
<path d="M -3.328125 -7.1875 C -3.328125 -7.1875 -3.328125 -1.78125 -3.328125 -1.78125 C -1.65625 -1.8125 -0.875 -2.71875 -0.875 -3.9375 C -0.875 -4.875 -1.265625 -5.53125 -2.21875 -5.859375 C -2.21875 -5.859375 -2.21875 -7.03125 -2.21875 -7.03125 C -0.734375 -6.734375 0.203125 -5.578125 0.203125 -3.890625 C 0.203125 -1.828125 -1.21875 -0.5625 -3.625 -0.5625 C -6.03125 -0.5625 -7.546875 -1.875 -7.546875 -3.921875 C -7.546875 -5.296875 -6.8125 -6.40625 -5.609375 -6.890625 C -5.0625 -7.09375 -4.390625 -7.1875 -3.328125 -7.1875 Z M -4.375 -5.9375 C -5.515625 -5.9375 -6.46875 -5.046875 -6.46875 -3.90625 C -6.46875 -2.734375 -5.59375 -1.90625 -4.28125 -1.8125 C -4.28125 -1.8125 -4.28125 -5.921875 -4.28125 -5.921875 C -4.3125 -5.9375 -4.375 -5.9375 -4.375 -5.9375 Z M -4.375 -5.9375 "/>
</g>
<g id="glyph-4-0-c8e1e1c5">
<path d="M -6.3125 -4.5 C -6.28125 -2.6875 -5.453125 -2.140625 -3.8125 -2.140625 C -3.8125 -2.140625 0 -2.140625 0 -2.140625 C 0 -2.140625 0 -0.984375 0 -0.984375 C 0 -0.984375 -7.34375 -0.984375 -7.34375 -0.984375 C -7.34375 -0.984375 -7.34375 -2.046875 -7.34375 -2.046875 C -7.34375 -2.046875 -6 -2.046875 -6 -2.046875 C -7.09375 -2.71875 -7.546875 -3.296875 -7.546875 -4.046875 C -7.546875 -4.203125 -7.53125 -4.296875 -7.5 -4.5 C -7.5 -4.5 -6.3125 -4.5 -6.3125 -4.5 Z M -6.3125 -4.5 "/>
</g>
<g id="glyph-5-0-c8e1e1c5">
<path d="M -7.34375 -6.6875 C -7.34375 -6.6875 1.546875 -3.4375 1.546875 -3.4375 C 2.59375 -3.03125 3.046875 -2.359375 3.046875 -1.546875 C 3.046875 -1.234375 3 -1 2.875 -0.75 C 2.875 -0.75 1.8125 -0.75 1.8125 -0.75 C 1.875 -1.015625 1.90625 -1.203125 1.90625 -1.375 C 1.90625 -1.875 1.703125 -2.109375 1.1875 -2.3125 C 1.1875 -2.3125 0.03125 -2.765625 0.03125 -2.765625 C 0.03125 -2.765625 -7.34375 -0.28125 -7.34375 -0.28125 C -7.34375 -0.28125 -7.34375 -1.53125 -7.34375 -1.53125 C -7.34375 -1.53125 -1.625 -3.40625 -1.625 -3.40625 C -1.625 -3.40625 -7.34375 -5.4375 -7.34375 -5.4375 C -7.34375 -5.4375 -7.34375 -6.6875 -7.34375 -6.6875 Z M -7.34375 -6.6875 "/>
</g>
<g id="glyph-6-0-c8e1e1c5">
</g>
<g id="glyph-6-1-c8e1e1c5">
<path d="M -3.609375 -3.578125 C -1.40625 -3.578125 1.140625 -2.703125 2.96875 -1.296875 C 2.96875 -1.296875 2.96875 -0.53125 2.96875 -0.53125 C 0.984375 -1.765625 -1.390625 -2.453125 -3.609375 -2.453125 C -5.859375 -2.453125 -8.203125 -1.765625 -10.203125 -0.53125 C -10.203125 -0.53125 -10.203125 -1.296875 -10.203125 -1.296875 C -8.375 -2.703125 -5.828125 -3.578125 -3.609375 -3.578125 Z M -3.609375 -3.578125 "/>
</g>
<g id="glyph-7-0-c8e1e1c5">
<path d="M -9.0625 -8.296875 C -9.0625 -8.296875 -9.0625 -4.953125 -9.0625 -4.953125 C -9.0625 -4.953125 0 -4.953125 0 -4.953125 C 0 -4.953125 0 -3.65625 0 -3.65625 C 0 -3.65625 -9.0625 -3.65625 -9.0625 -3.65625 C -9.0625 -3.65625 -9.0625 -0.296875 -9.0625 -0.296875 C -9.0625 -0.296875 -10.203125 -0.296875 -10.203125 -0.296875 C -10.203125 -0.296875 -10.203125 -8.296875 -10.203125 -8.296875 C -10.203125 -8.296875 -9.0625 -8.296875 -9.0625 -8.296875 Z M -9.0625 -8.296875 "/>
</g>
<g id="glyph-7-1-c8e1e1c5">
<path d="M 0 -10.640625 C 0 -10.640625 0 -9.484375 0 -9.484375 C 0 -9.484375 -5.046875 -9.484375 -5.046875 -9.484375 C -5.984375 -9.484375 -6.53125 -8.984375 -6.53125 -8.140625 C -6.53125 -7.1875 -5.671875 -6.390625 -4.609375 -6.390625 C -4.609375 -6.390625 0 -6.390625 0 -6.390625 C 0 -6.390625 0 -5.234375 0 -5.234375 C 0 -5.234375 -5.046875 -5.234375 -5.046875 -5.234375 C -5.984375 -5.234375 -6.53125 -4.75 -6.53125 -3.875 C -6.53125 -2.921875 -5.671875 -2.15625 -4.609375 -2.15625 C -4.609375 -2.15625 0 -2.15625 0 -2.15625 C 0 -2.15625 0 -1 0 -1 C 0 -1 -7.34375 -1 -7.34375 -1 C -7.34375 -1 -7.34375 -2.0625 -7.34375 -2.0625 C -7.34375 -2.0625 -6.296875 -2.0625 -6.296875 -2.0625 C -7.1875 -2.6875 -7.546875 -3.328125 -7.546875 -4.3125 C -7.546875 -5.265625 -7.203125 -5.859375 -6.421875 -6.28125 C -7.25 -6.96875 -7.546875 -7.5625 -7.546875 -8.546875 C -7.546875 -9.90625 -6.8125 -10.640625 -5.5 -10.640625 C -5.5 -10.640625 0 -10.640625 0 -10.640625 Z M 0 -10.640625 "/>
</g>
<g id="glyph-8-0-c8e1e1c5">
<path d="M 0 -2.140625 C 0 -2.140625 0 -0.984375 0 -0.984375 C 0 -0.984375 -7.34375 -0.984375 -7.34375 -0.984375 C -7.34375 -0.984375 -7.34375 -2.140625 -7.34375 -2.140625 C -7.34375 -2.140625 0 -2.140625 0 -2.140625 Z M -8.4375 -2.296875 C -8.4375 -2.296875 -8.4375 -0.84375 -8.4375 -0.84375 C -8.4375 -0.84375 -9.890625 -0.84375 -9.890625 -0.84375 C -9.890625 -0.84375 -9.890625 -2.296875 -9.890625 -2.296875 C -9.890625 -2.296875 -8.4375 -2.296875 -8.4375 -2.296875 Z M -8.4375 -2.296875 "/>
</g>
<g id="glyph-8-1-c8e1e1c5">
<path d="M -2.0625 -6.421875 C -0.640625 -6.421875 0.203125 -5.25 0.203125 -3.40625 C 0.203125 -1.484375 -0.546875 -0.53125 -2.234375 -0.46875 C -2.234375 -0.46875 -2.234375 -1.703125 -2.234375 -1.703125 C -1.125 -1.859375 -0.875 -2.453125 -0.875 -3.5 C -0.875 -4.515625 -1.28125 -5.203125 -1.953125 -5.203125 C -2.484375 -5.203125 -2.734375 -4.890625 -2.921875 -4.078125 C -2.921875 -4.078125 -3.1875 -2.984375 -3.1875 -2.984375 C -3.609375 -1.25 -4.15625 -0.65625 -5.3125 -0.65625 C -6.65625 -0.65625 -7.546875 -1.765625 -7.546875 -3.46875 C -7.546875 -5.171875 -6.734375 -6.125 -5.296875 -6.125 C -5.296875 -6.125 -5.296875 -4.90625 -5.296875 -4.90625 C -6.0625 -4.875 -6.46875 -4.375 -6.46875 -3.4375 C -6.46875 -2.484375 -6.03125 -1.875 -5.359375 -1.875 C -4.84375 -1.875 -4.53125 -2.28125 -4.3125 -3.234375 C -4.3125 -3.234375 -4.046875 -4.359375 -4.046875 -4.359375 C -3.703125 -5.8125 -3.15625 -6.421875 -2.0625 -6.421875 Z M -2.0625 -6.421875 "/>
</g>
<g id="glyph-9-0-c8e1e1c5">
<path d="M 0 -10.640625 C 0 -10.640625 0 -9.484375 0 -9.484375 C 0 -9.484375 -5.046875 -9.484375 -5.046875 -9.484375 C -5.984375 -9.484375 -6.53125 -8.984375 -6.53125 -8.140625 C -6.53125 -7.1875 -5.671875 -6.390625 -4.609375 -6.390625 C -4.609375 -6.390625 0 -6.390625 0 -6.390625 C 0 -6.390625 0 -5.234375 0 -5.234375 C 0 -5.234375 -5.046875 -5.234375 -5.046875 -5.234375 C -5.984375 -5.234375 -6.53125 -4.75 -6.53125 -3.875 C -6.53125 -2.921875 -5.671875 -2.15625 -4.609375 -2.15625 C -4.609375 -2.15625 0 -2.15625 0 -2.15625 C 0 -2.15625 0 -1 0 -1 C 0 -1 -7.34375 -1 -7.34375 -1 C -7.34375 -1 -7.34375 -2.0625 -7.34375 -2.0625 C -7.34375 -2.0625 -6.296875 -2.0625 -6.296875 -2.0625 C -7.1875 -2.6875 -7.546875 -3.328125 -7.546875 -4.3125 C -7.546875 -5.265625 -7.203125 -5.859375 -6.421875 -6.28125 C -7.25 -6.96875 -7.546875 -7.5625 -7.546875 -8.546875 C -7.546875 -9.90625 -6.8125 -10.640625 -5.5 -10.640625 C -5.5 -10.640625 0 -10.640625 0 -10.640625 Z M 0 -10.640625 "/>
</g>
<g id="glyph-10-0-c8e1e1c5">
<path d="M -3.328125 -7.1875 C -3.328125 -7.1875 -3.328125 -1.78125 -3.328125 -1.78125 C -1.65625 -1.8125 -0.875 -2.71875 -0.875 -3.9375 C -0.875 -4.875 -1.265625 -5.53125 -2.21875 -5.859375 C -2.21875 -5.859375 -2.21875 -7.03125 -2.21875 -7.03125 C -0.734375 -6.734375 0.203125 -5.578125 0.203125 -3.890625 C 0.203125 -1.828125 -1.21875 -0.5625 -3.625 -0.5625 C -6.03125 -0.5625 -7.546875 -1.875 -7.546875 -3.921875 C -7.546875 -5.296875 -6.8125 -6.40625 -5.609375 -6.890625 C -5.0625 -7.09375 -4.390625 -7.1875 -3.328125 -7.1875 Z M -4.375 -5.9375 C -5.515625 -5.9375 -6.46875 -5.046875 -6.46875 -3.90625 C -6.46875 -2.734375 -5.59375 -1.90625 -4.28125 -1.8125 C -4.28125 -1.8125 -4.28125 -5.921875 -4.28125 -5.921875 C -4.3125 -5.9375 -4.375 -5.9375 -4.375 -5.9375 Z M -4.375 -5.9375 "/>
</g>
<g id="glyph-11-0-c8e1e1c5">
</g>
<g id="glyph-12-0-c8e1e1c5">
<path d="M 2.96875 -4.078125 C 2.96875 -4.078125 2.96875 -3.296875 2.96875 -3.296875 C 1.140625 -1.90625 -1.40625 -1.015625 -3.625 -1.015625 C -5.828125 -1.015625 -8.375 -1.90625 -10.203125 -3.296875 C -10.203125 -3.296875 -10.203125 -4.078125 -10.203125 -4.078125 C -8.21875 -2.84375 -5.859375 -2.15625 -3.625 -2.15625 C -1.390625 -2.15625 0.96875 -2.84375 2.96875 -4.078125 Z M 2.96875 -4.078125 "/>
</g>
<g id="glyph-13-0-c8e1e1c5">
<path d="M 6.640625 -1.625 C 6.640625 -1.625 5.96875 -0.953125 5.96875 -0.953125 C 5.96875 -0.953125 4.09375 -2.828125 4.09375 -2.828125 C 4.09375 -2.828125 2.21875 -0.953125 2.21875 -0.953125 C 2.21875 -0.953125 1.546875 -1.625 1.546875 -1.625 C 1.546875 -1.625 3.421875 -3.5 3.421875 -3.5 C 3.421875 -3.5 1.546875 -5.375 1.546875 -5.375 C 1.546875 -5.375 2.21875 -6.046875 2.21875 -6.046875 C 2.21875 -6.046875 4.09375 -4.171875 4.09375 -4.171875 C 4.09375 -4.171875 5.96875 -6.046875 5.96875 -6.046875 C 5.96875 -6.046875 6.640625 -5.375 6.640625 -5.375 C 6.640625 -5.375 4.765625 -3.5 4.765625 -3.5 C 4.765625 -3.5 6.640625 -1.625 6.640625 -1.625 Z M 6.640625 -1.625 "/>
</g>
<g id="glyph-14-0-c8e1e1c5">
<path d="M 3.265625 -9.453125 L 1.15625 -6.578125 L 3.265625 -6.578125 Z M 3.109375 -10.28125 L 4.25 -10.28125 L 4.25 -6.578125 L 5.171875 -6.578125 L 5.171875 -5.84375 L 4.25 -5.84375 L 4.25 -4.5625 L 3.265625 -4.5625 L 3.265625 -5.84375 L 0.4375 -5.84375 L 0.4375 -6.671875 Z M 3.109375 -10.28125 "/>
</g>
<g id="glyph-14-1-c8e1e1c5">
<path d="M 0.96875 -10.28125 L 4.453125 -10.28125 L 4.453125 -9.625 L 1.78125 -9.625 L 1.78125 -8.234375 C 1.90625 -8.273438 2.035156 -8.300781 2.171875 -8.3125 C 2.296875 -8.332031 2.425781 -8.34375 2.5625 -8.34375 C 3.289062 -8.34375 3.867188 -8.171875 4.296875 -7.828125 C 4.722656 -7.472656 4.9375 -7 4.9375 -6.40625 C 4.9375 -5.789062 4.71875 -5.3125 4.28125 -4.96875 C 3.84375 -4.632812 3.222656 -4.46875 2.421875 -4.46875 C 2.148438 -4.46875 1.867188 -4.488281 1.578125 -4.53125 C 1.296875 -4.570312 1.003906 -4.628906 0.703125 -4.703125 L 0.703125 -5.484375 C 0.960938 -5.359375 1.234375 -5.265625 1.515625 -5.203125 C 1.796875 -5.140625 2.09375 -5.109375 2.40625 -5.109375 C 2.914062 -5.109375 3.316406 -5.222656 3.609375 -5.453125 C 3.898438 -5.691406 4.046875 -6.007812 4.046875 -6.40625 C 4.046875 -6.800781 3.898438 -7.113281 3.609375 -7.34375 C 3.316406 -7.582031 2.914062 -7.703125 2.40625 -7.703125 C 2.164062 -7.703125 1.925781 -7.675781 1.6875 -7.625 C 1.457031 -7.582031 1.21875 -7.515625 0.96875 -7.421875 Z M 0.96875 -10.28125 "/>
</g>
<g id="glyph-15-0-c8e1e1c5">
<path d="M 10.4375 -0.53125 C 10.4375 -0.53125 9.359375 0.609375 9.359375 0.609375 C 9.359375 0.609375 8.15625 -0.53125 8.15625 -0.53125 C 7.34375 -0.046875 6.5625 0.171875 5.515625 0.171875 C 2.546875 0.171875 0.609375 -2.046875 0.609375 -5.109375 C 0.609375 -8.171875 2.53125 -10.375 5.515625 -10.375 C 8.5 -10.375 10.4375 -8.140625 10.4375 -5.140625 C 10.4375 -3.765625 10 -2.4375 9.3125 -1.59375 C 9.3125 -1.59375 10.4375 -0.53125 10.4375 -0.53125 Z M 8.328125 -5.09375 C 8.328125 -7.1875 7.21875 -8.578125 5.515625 -8.578125 C 3.828125 -8.578125 2.703125 -7.25 2.703125 -5.109375 C 2.703125 -2.96875 3.828125 -1.625 5.5 -1.625 C 5.953125 -1.625 6.40625 -1.71875 6.734375 -1.890625 C 6.734375 -1.890625 5.65625 -2.90625 5.65625 -2.90625 C 5.65625 -2.90625 6.71875 -4.046875 6.71875 -4.046875 C 6.71875 -4.046875 7.875 -2.953125 7.875 -2.953125 C 8.171875 -3.5625 8.328125 -4.25 8.328125 -5.09375 Z M 8.328125 -5.09375 "/>
</g>
<g id="glyph-15-1-c8e1e1c5">
<path d="M 7.578125 0 C 7.578125 0 5.609375 0 5.609375 0 C 5.609375 0 5.609375 -1 5.609375 -1 C 5.046875 -0.25 4.375 0.125 3.34375 0.125 C 1.734375 0.125 0.8125 -0.828125 0.8125 -2.484375 C 0.8125 -2.484375 0.8125 -7.5625 0.8125 -7.5625 C 0.8125 -7.5625 2.765625 -7.5625 2.765625 -7.5625 C 2.765625 -7.5625 2.765625 -2.890625 2.765625 -2.890625 C 2.765625 -1.984375 3.1875 -1.546875 4.03125 -1.546875 C 4.984375 -1.546875 5.609375 -2.125 5.609375 -3.03125 C 5.609375 -3.03125 5.609375 -7.5625 5.609375 -7.5625 C 5.609375 -7.5625 7.578125 -7.5625 7.578125 -7.5625 C 7.578125 -7.5625 7.578125 0 7.578125 0 Z M 7.578125 0 "/>
</g>
<g id="glyph-15-2-c8e1e1c5">
<path d="M 7.34375 -3.5 C 7.34375 -3.5 7.34375 -3.265625 7.34375 -3.265625 C 7.34375 -3.265625 2.265625 -3.265625 2.265625 -3.265625 C 2.328125 -1.796875 2.90625 -1.375 3.84375 -1.375 C 4.546875 -1.375 5.171875 -1.578125 5.328125 -2.125 C 5.328125 -2.125 7.265625 -2.125 7.265625 -2.125 C 6.828125 -0.640625 5.453125 0.125 3.765625 0.125 C 1.625 0.125 0.3125 -1.265625 0.3125 -3.6875 C 0.3125 -6.21875 1.640625 -7.6875 3.8125 -7.6875 C 6.03125 -7.6875 7.34375 -6.109375 7.34375 -3.5 Z M 5.3125 -4.5625 C 5.203125 -5.640625 4.625 -6.1875 3.78125 -6.1875 C 2.90625 -6.1875 2.421875 -5.609375 2.296875 -4.5625 C 2.296875 -4.5625 5.3125 -4.5625 5.3125 -4.5625 Z M 5.3125 -4.5625 "/>
</g>
<g id="glyph-15-3-c8e1e1c5">
<path d="M 5.1875 -5.6875 C 4.90625 -5.71875 4.78125 -5.734375 4.5625 -5.734375 C 3.421875 -5.734375 2.84375 -5.171875 2.84375 -4.015625 C 2.84375 -4.015625 2.84375 0 2.84375 0 C 2.84375 0 0.875 0 0.875 0 C 0.875 0 0.875 -7.5625 0.875 -7.5625 C 0.875 -7.5625 2.84375 -7.5625 2.84375 -7.5625 C 2.84375 -7.5625 2.84375 -6.078125 2.84375 -6.078125 C 3.265625 -7.09375 4.046875 -7.6875 4.9375 -7.6875 C 5 -7.6875 5.0625 -7.6875 5.1875 -7.671875 C 5.1875 -7.671875 5.1875 -5.6875 5.1875 -5.6875 Z M 5.1875 -5.6875 "/>
</g>
<g id="glyph-15-4-c8e1e1c5">
<path d="M 7.53125 -7.5625 C 7.53125 -7.5625 4.421875 1.390625 4.421875 1.390625 C 3.90625 2.828125 3.21875 3.0625 1.90625 3.0625 C 1.671875 3.0625 1.5 3.046875 1.203125 3.015625 C 1.203125 3.015625 1.203125 1.546875 1.203125 1.546875 C 1.453125 1.609375 1.5625 1.625 1.71875 1.625 C 2.40625 1.625 2.9375 1.078125 2.9375 0.359375 C 2.9375 0.359375 2.9375 0.328125 2.9375 0.328125 C 2.9375 0.328125 0.125 -7.5625 0.125 -7.5625 C 0.125 -7.5625 2.28125 -7.5625 2.28125 -7.5625 C 2.28125 -7.5625 3.953125 -2.0625 3.953125 -2.0625 C 3.953125 -2.0625 5.515625 -7.5625 5.515625 -7.5625 C 5.515625 -7.5625 7.53125 -7.5625 7.53125 -7.5625 Z M 7.53125 -7.5625 "/>
</g>
<g id="glyph-15-5-c8e1e1c5">
</g>
<g id="glyph-15-6-c8e1e1c5">
<path d="M 8.859375 -3.0625 C 8.859375 -1 7.3125 0.171875 4.671875 0.171875 C 2.078125 0.171875 0.453125 -1.015625 0.453125 -3.203125 C 0.453125 -3.203125 2.484375 -3.203125 2.484375 -3.203125 C 2.484375 -2.109375 3.359375 -1.515625 4.78125 -1.515625 C 6.0625 -1.515625 6.84375 -1.953125 6.84375 -2.8125 C 6.84375 -3.640625 6.328125 -3.9375 4.921875 -4.21875 C 4.921875 -4.21875 3.5 -4.5 3.5 -4.5 C 1.421875 -4.90625 0.625 -5.640625 0.625 -7.234375 C 0.625 -9.21875 2.046875 -10.375 4.5 -10.375 C 6.984375 -10.375 8.5 -9.25 8.5 -7.09375 C 8.5 -7.09375 6.53125 -7.09375 6.53125 -7.09375 C 6.53125 -8.140625 5.71875 -8.6875 4.390625 -8.6875 C 3.3125 -8.6875 2.625 -8.203125 2.625 -7.4375 C 2.625 -6.6875 3.0625 -6.390625 4.5625 -6.109375 C 4.5625 -6.109375 6.15625 -5.796875 6.15625 -5.796875 C 8.046875 -5.4375 8.859375 -4.671875 8.859375 -3.0625 Z M 8.859375 -3.0625 "/>
</g>
<g id="glyph-15-7-c8e1e1c5">
<path d="M 8.03125 -3.78125 C 8.03125 -1.484375 6.6875 0.125 4.875 0.125 C 3.921875 0.125 3.25 -0.171875 2.765625 -1.015625 C 2.765625 -1.015625 2.765625 3.046875 2.765625 3.046875 C 2.765625 3.046875 0.8125 3.046875 0.8125 3.046875 C 0.8125 3.046875 0.8125 -7.5625 0.8125 -7.5625 C 0.8125 -7.5625 2.765625 -7.5625 2.765625 -7.5625 C 2.765625 -7.5625 2.765625 -6.4375 2.765625 -6.4375 C 3.25 -7.28125 3.921875 -7.6875 4.875 -7.6875 C 6.84375 -7.6875 8.03125 -6.015625 8.03125 -3.78125 Z M 6.078125 -3.75 C 6.078125 -5.1875 5.421875 -6.046875 4.421875 -6.046875 C 3.4375 -6.046875 2.765625 -5.1875 2.765625 -3.78125 C 2.765625 -2.359375 3.4375 -1.515625 4.421875 -1.515625 C 5.390625 -1.515625 6.078125 -2.375 6.078125 -3.75 Z M 6.078125 -3.75 "/>
</g>
<g id="glyph-15-8-c8e1e1c5">
<path d="M 7.625 0 C 7.625 0 5.671875 0 5.671875 0 C 5.671875 0 5.671875 -0.875 5.671875 -0.875 C 5.1875 -0.21875 4.515625 0.125 3.578125 0.125 C 1.578125 0.125 0.40625 -1.625 0.40625 -3.765625 C 0.40625 -6.046875 1.78125 -7.6875 3.578125 -7.6875 C 4.515625 -7.6875 5.1875 -7.34375 5.671875 -6.578125 C 5.671875 -6.578125 5.671875 -10.203125 5.671875 -10.203125 C 5.671875 -10.203125 7.625 -10.203125 7.625 -10.203125 C 7.625 -10.203125 7.625 0 7.625 0 Z M 5.671875 -3.734375 C 5.671875 -5.1875 5.015625 -6.046875 4.015625 -6.046875 C 3.03125 -6.046875 2.359375 -5.171875 2.359375 -3.765625 C 2.359375 -2.375 3.03125 -1.515625 4.015625 -1.515625 C 5 -1.515625 5.671875 -2.359375 5.671875 -3.734375 Z M 5.671875 -3.734375 "/>
</g>
<g id="glyph-15-9-c8e1e1c5">
<path d="M 10.390625 -5.046875 C 10.390625 -2.0625 8.4375 0.171875 5.46875 0.171875 C 2.484375 0.171875 0.5625 -2.0625 0.5625 -5.109375 C 0.5625 -8.03125 2.46875 -10.375 5.453125 -10.375 C 8.4375 -10.375 10.390625 -8.125 10.390625 -5.046875 Z M 8.28125 -5.046875 C 8.28125 -7.1875 7.203125 -8.578125 5.46875 -8.578125 C 3.78125 -8.578125 2.65625 -7.171875 2.65625 -5.109375 C 2.65625 -2.96875 3.78125 -1.625 5.46875 -1.625 C 7.15625 -1.625 8.28125 -2.96875 8.28125 -5.046875 Z M 8.28125 -5.046875 "/>
</g>
<g id="glyph-15-10-c8e1e1c5">
<path d="M 7.5 -7.5625 C 7.5 -7.5625 4.90625 0 4.90625 0 C 4.90625 0 2.84375 0 2.84375 0 C 2.84375 0 0.203125 -7.5625 0.203125 -7.5625 C 0.203125 -7.5625 2.265625 -7.5625 2.265625 -7.5625 C 2.265625 -7.5625 3.90625 -2.03125 3.90625 -2.03125 C 3.90625 -2.03125 5.4375 -7.5625 5.4375 -7.5625 C 5.4375 -7.5625 7.5 -7.5625 7.5 -7.5625 Z M 7.5 -7.5625 "/>
</g>
<g id="glyph-15-11-c8e1e1c5">
<path d="M 7.34375 0 C 7.34375 0 5.203125 0 5.203125 0 C 5.03125 -0.21875 4.984375 -0.5625 4.984375 -0.953125 C 4.296875 -0.234375 3.53125 0.125 2.6875 0.125 C 1.421875 0.125 0.390625 -0.578125 0.390625 -2.046875 C 0.390625 -3.421875 1.125 -4.0625 2.625 -4.328125 C 2.625 -4.328125 3.40625 -4.46875 3.40625 -4.46875 C 4.375 -4.640625 4.96875 -4.546875 4.96875 -5.34375 C 4.96875 -5.859375 4.59375 -6.109375 3.84375 -6.109375 C 2.875 -6.109375 2.546875 -5.859375 2.453125 -5.0625 C 2.453125 -5.0625 0.5625 -5.0625 0.5625 -5.0625 C 0.6875 -6.8125 1.75 -7.6875 3.796875 -7.6875 C 5.84375 -7.6875 6.890625 -6.90625 6.890625 -5.359375 C 6.890625 -5.359375 6.890625 -1.15625 6.890625 -1.15625 C 6.890625 -0.765625 6.984375 -0.5625 7.34375 -0.234375 C 7.34375 -0.234375 7.34375 0 7.34375 0 Z M 4.96875 -3.234375 C 4.96875 -3.234375 4.96875 -3.5625 4.96875 -3.5625 C 4.75 -3.453125 4.65625 -3.4375 4.140625 -3.328125 C 4.140625 -3.328125 3.46875 -3.203125 3.46875 -3.203125 C 2.65625 -3.046875 2.359375 -2.84375 2.359375 -2.265625 C 2.359375 -1.703125 2.765625 -1.453125 3.421875 -1.453125 C 4.40625 -1.453125 4.96875 -2.09375 4.96875 -3.234375 Z M 4.96875 -3.234375 "/>
</g>
<g id="glyph-15-12-c8e1e1c5">
<path d="M 11.53125 0 C 11.53125 0 9.578125 0 9.578125 0 C 9.578125 0 9.578125 -5.046875 9.578125 -5.046875 C 9.578125 -5.640625 9.171875 -6.015625 8.515625 -6.015625 C 7.671875 -6.015625 7.171875 -5.453125 7.171875 -4.53125 C 7.171875 -4.53125 7.171875 0 7.171875 0 C 7.171875 0 5.203125 0 5.203125 0 C 5.203125 0 5.203125 -5.046875 5.203125 -5.046875 C 5.203125 -5.640625 4.796875 -6.015625 4.140625 -6.015625 C 3.296875 -6.015625 2.796875 -5.453125 2.796875 -4.53125 C 2.796875 -4.53125 2.796875 0 2.796875 0 C 2.796875 0 0.84375 0 0.84375 0 C 0.84375 0 0.84375 -7.5625 0.84375 -7.5625 C 0.84375 -7.5625 2.78125 -7.5625 2.78125 -7.5625 C 2.78125 -7.5625 2.78125 -6.625 2.78125 -6.625 C 3.4375 -7.390625 3.984375 -7.6875 4.859375 -7.6875 C 5.796875 -7.6875 6.546875 -7.28125 6.921875 -6.5625 C 7.5 -7.34375 8.171875 -7.6875 9.125 -7.6875 C 10.640625 -7.6875 11.53125 -6.8125 11.53125 -5.34375 C 11.53125 -5.34375 11.53125 0 11.53125 0 Z M 11.53125 0 "/>
</g>
<g id="glyph-15-13-c8e1e1c5">
<path d="M 2.890625 0 C 2.890625 0 0.9375 0 0.9375 0 C 0.9375 0 0.9375 -10.203125 0.9375 -10.203125 C 0.9375 -10.203125 2.890625 -10.203125 2.890625 -10.203125 C 2.890625 -10.203125 2.890625 0 2.890625 0 Z M 2.890625 0 "/>
</g>
<g id="glyph-15-14-c8e1e1c5">
<path d="M 7.28125 -2.234375 C 7.28125 -0.71875 6.109375 0.125 3.96875 0.125 C 1.6875 0.125 0.46875 -0.734375 0.40625 -2.390625 C 0.40625 -2.390625 2.328125 -2.390625 2.328125 -2.390625 C 2.484375 -1.578125 2.96875 -1.40625 3.859375 -1.40625 C 4.78125 -1.40625 5.3125 -1.59375 5.3125 -2.0625 C 5.3125 -2.265625 5.15625 -2.421875 4.65625 -2.578125 C 4.65625 -2.578125 2.328125 -3.296875 2.328125 -3.296875 C 0.921875 -3.734375 0.671875 -4.234375 0.671875 -5.171875 C 0.671875 -6.71875 1.859375 -7.6875 3.78125 -7.6875 C 5.8125 -7.6875 7.046875 -6.71875 7.0625 -5.125 C 7.0625 -5.125 5.1875 -5.125 5.1875 -5.125 C 5.171875 -5.8125 4.703125 -6.140625 3.765625 -6.140625 C 3.078125 -6.140625 2.625 -5.859375 2.625 -5.453125 C 2.625 -5.140625 2.765625 -5.015625 3.3125 -4.859375 C 3.3125 -4.859375 5.796875 -4.140625 5.796875 -4.140625 C 6.796875 -3.84375 7.28125 -3.203125 7.28125 -2.34375 C 7.28125 -2.34375 7.28125 -2.234375 7.28125 -2.234375 Z M 7.28125 -2.234375 "/>
</g>
<g id="glyph-15-15-c8e1e1c5">
<path d="M 4.234375 2.796875 C 4.234375 2.796875 2.84375 2.796875 2.84375 2.796875 C 1.234375 0.375 0.5625 -1.546875 0.5625 -3.703125 C 0.5625 -5.859375 1.234375 -7.78125 2.84375 -10.203125 C 2.84375 -10.203125 4.234375 -10.203125 4.234375 -10.203125 C 2.765625 -7.34375 2.28125 -5.75 2.28125 -3.703125 C 2.28125 -1.65625 2.765625 -0.078125 4.234375 2.796875 Z M 4.234375 2.796875 "/>
</g>
<g id="glyph-15-16-c8e1e1c5">
<path d="M 5.296875 0 C 5.296875 0 3.328125 0 3.328125 0 C 3.328125 0 3.328125 -6.84375 3.328125 -6.84375 C 3.328125 -6.84375 0.953125 -6.84375 0.953125 -6.84375 C 0.953125 -6.84375 0.953125 -8.140625 0.953125 -8.140625 C 2.65625 -8.140625 3.6875 -8.75 3.984375 -9.921875 C 3.984375 -9.921875 5.296875 -9.921875 5.296875 -9.921875 C 5.296875 -9.921875 5.296875 0 5.296875 0 Z M 5.296875 0 "/>
</g>
<g id="glyph-15-17-c8e1e1c5">
<path d="M 7.234375 -4.9375 C 7.234375 -1.015625 5.84375 0.125 3.828125 0.125 C 0.953125 0.125 0.40625 -2.21875 0.40625 -5 C 0.40625 -7.859375 0.984375 -10.140625 3.828125 -10.140625 C 6.734375 -10.140625 7.234375 -7.75 7.234375 -4.9375 Z M 5.28125 -4.984375 C 5.28125 -8.0625 4.78125 -8.546875 3.828125 -8.546875 C 2.765625 -8.546875 2.359375 -7.890625 2.359375 -5.015625 C 2.359375 -2.0625 2.828125 -1.546875 3.828125 -1.546875 C 4.875 -1.546875 5.28125 -2.203125 5.28125 -4.984375 Z M 5.28125 -4.984375 "/>
</g>
<g id="glyph-15-18-c8e1e1c5">
<path d="M 7.671875 0 C 7.671875 0 5.375 0 5.375 0 C 5.375 0 3.5625 -3.328125 3.5625 -3.328125 C 3.5625 -3.328125 2.78125 -2.484375 2.78125 -2.484375 C 2.78125 -2.484375 2.78125 0 2.78125 0 C 2.78125 0 0.828125 0 0.828125 0 C 0.828125 0 0.828125 -10.203125 0.828125 -10.203125 C 0.828125 -10.203125 2.78125 -10.203125 2.78125 -10.203125 C 2.78125 -10.203125 2.78125 -4.625 2.78125 -4.625 C 2.78125 -4.625 5.265625 -7.5625 5.265625 -7.5625 C 5.265625 -7.5625 7.484375 -7.5625 7.484375 -7.5625 C 7.484375 -7.5625 4.90625 -4.703125 4.90625 -4.703125 C 4.90625 -4.703125 7.671875 0 7.671875 0 Z M 7.671875 0 "/>
</g>
<g id="glyph-15-19-c8e1e1c5">
<path d="M 4.171875 -2.890625 C 4.171875 -2.890625 0.359375 -2.890625 0.359375 -2.890625 C 0.359375 -2.890625 0.359375 -4.78125 0.359375 -4.78125 C 0.359375 -4.78125 4.171875 -4.78125 4.171875 -4.78125 C 4.171875 -4.78125 4.171875 -2.890625 4.171875 -2.890625 Z M 4.171875 -2.890625 "/>
</g>
<g id="glyph-15-20-c8e1e1c5">
<path d="M 7.96875 -3.71875 C 7.96875 -1.296875 6.53125 0.125 4.234375 0.125 C 1.90625 0.125 0.484375 -1.28125 0.484375 -3.78125 C 0.484375 -6.265625 1.90625 -7.6875 4.21875 -7.6875 C 6.578125 -7.6875 7.96875 -6.28125 7.96875 -3.71875 Z M 6 -3.75 C 6 -5.234375 5.3125 -6.109375 4.234375 -6.109375 C 3.15625 -6.109375 2.453125 -5.21875 2.453125 -3.78125 C 2.453125 -2.34375 3.15625 -1.453125 4.234375 -1.453125 C 5.28125 -1.453125 6 -2.34375 6 -3.75 Z M 6 -3.75 "/>
</g>
<g id="glyph-15-21-c8e1e1c5">
<path d="M 3.984375 -3.703125 C 3.984375 -1.546875 3.3125 0.375 1.703125 2.796875 C 1.703125 2.796875 0.3125 2.796875 0.3125 2.796875 C 1.796875 -0.0625 2.265625 -1.65625 2.265625 -3.703125 C 2.265625 -5.75 1.796875 -7.328125 0.3125 -10.203125 C 0.3125 -10.203125 1.703125 -10.203125 1.703125 -10.203125 C 3.3125 -7.78125 3.984375 -5.859375 3.984375 -3.703125 Z M 3.984375 -3.703125 "/>
</g>
</g>
</defs>
<rect x="-60" y="-45" width="720" height="540" fill="rgb(100%, 100%, 100%)" fill-opacity="1"/>
<path fill-rule="nonzero" fill="rgb(100%, 100%, 100%)" fill-opacity="1" d="M 103 391 L 584 391 L 584 36 L 103 36 Z M 103 391 "/>
<path fill="none" stroke-width="1" stroke-linecap="butt" stroke-linejoin="miter" stroke="rgb(0%, 0%, 0%)" stroke-opacity="0.12" stroke-miterlimit="1.154701" d="M 103 391 L 103 36 "/>
<path fill="none" stroke-width="1" stroke-linecap="butt" stroke-linejoin="miter" stroke="rgb(0%, 0%, 0%)" stroke-opacity="0.12" stroke-miterlimit="1.154701" d="M 212.316406 391 L 212.316406 36 "/>
<path fill="none" stroke-width="1" stroke-linecap="butt" stroke-linejoin="miter" stroke="rgb(0%, 0%, 0%)" stroke-opacity="0.12" stroke-miterlimit="1.154701" d="M 321.636719 391 L 321.636719 36 "/>
<path fill="none" stroke-width="1" stroke-linecap="butt" stroke-linejoin="miter" stroke="rgb(0%, 0%, 0%)" stroke-opacity="0.12" stroke-miterlimit="1.154701" d="M 430.953125 391 L 430.953125 36 "/>
<path fill="none" stroke-width="1" stroke-linecap="butt" stroke-linejoin="miter" stroke="rgb(0%, 0%, 0%)" stroke-opacity="0.12" stroke-miterlimit="1.154701" d="M 540.273438 391 L 540.273438 36 "/>
<path fill="none" stroke-width="1" stroke-linecap="butt" stroke-linejoin="miter" stroke="rgb(0%, 0%, 0%)" stroke-opacity="0.12" stroke-miterlimit="1.154701" d="M 103 281.34375 L 584 281.34375 "/>
<path fill="none" stroke-width="1" stroke-linecap="butt" stroke-linejoin="miter" stroke="rgb(0%, 0%, 0%)" stroke-opacity="0.12" stroke-miterlimit="1.154701" d="M 103 164.75 L 584 164.75 "/>
<path fill="none" stroke-width="1" stroke-linecap="butt" stroke-linejoin="miter" stroke="rgb(0%, 0%, 0%)" stroke-opacity="0.12" stroke-miterlimit="1.154701" d="M 103 48.15625 L 584 48.15625 "/>
<g fill="rgb(0%, 0%, 0%)" fill-opacity="1">
<use xlink:href="#glyph-0-0-c8e1e1c5" x="299.148014" y="431.567999"/>
</g>
<g fill="rgb(0%, 0%, 0%)" fill-opacity="1">
<use xlink:href="#glyph-0-1-c8e1e1c5" x="308.486015" y="431.567999"/>
</g>
<g fill="rgb(0%, 0%, 0%)" fill-opacity="1">
<use xlink:href="#glyph-0-2-c8e1e1c5" x="316.270014" y="431.567999"/>
</g>
<g fill="rgb(0%, 0%, 0%)" fill-opacity="1">
<use xlink:href="#glyph-0-3-c8e1e1c5" x="327.932015" y="431.567999"/>
</g>
<g fill="rgb(0%, 0%, 0%)" fill-opacity="1">
<use xlink:href="#glyph-0-4-c8e1e1c5" x="335.716015" y="431.567999"/>
</g>
<g fill="rgb(0%, 0%, 0%)" fill-opacity="1">
<use xlink:href="#glyph-0-5-c8e1e1c5" x="338.824017" y="431.567999"/>
</g>
<g fill="rgb(0%, 0%, 0%)" fill-opacity="1">
<use xlink:href="#glyph-0-6-c8e1e1c5" x="346.608018" y="431.567999"/>
</g>
<g fill="rgb(0%, 0%, 0%)" fill-opacity="1">
<use xlink:href="#glyph-0-7-c8e1e1c5" x="350.500016" y="431.567999"/>
</g>
<g fill="rgb(0%, 0%, 0%)" fill-opacity="1">
<use xlink:href="#glyph-0-8-c8e1e1c5" x="360.608014" y="431.567999"/>
</g>
<g fill="rgb(0%, 0%, 0%)" fill-opacity="1">
<use xlink:href="#glyph-0-9-c8e1e1c5" x="368.392011" y="431.567999"/>
</g>
<g fill="rgb(0%, 0%, 0%)" fill-opacity="1">
<use xlink:href="#glyph-0-10-c8e1e1c5" x="376.176008" y="431.567999"/>
</g>
<g fill="rgb(0%, 0%, 0%)" fill-opacity="1">
<use xlink:href="#glyph-0-11-c8e1e1c5" x="383.960005" y="431.567999"/>
</g>
<g fill="rgb(0%, 0%, 0%)" fill-opacity="1">
<use xlink:href="#glyph-0-12-c8e1e1c5" x="99.108002" y="412.257999"/>
</g>
<g fill="rgb(0%, 0%, 0%)" fill-opacity="1">
<use xlink:href="#glyph-0-13-c8e1e1c5" x="204.534181" y="412.257999"/>
</g>
<g fill="rgb(0%, 0%, 0%)" fill-opacity="1">
<use xlink:href="#glyph-0-12-c8e1e1c5" x="212.318181" y="412.257999"/>
</g>
<g fill="rgb(0%, 0%, 0%)" fill-opacity="1">
<use xlink:href="#glyph-0-14-c8e1e1c5" x="313.85236" y="412.257999"/>
</g>
<g fill="rgb(0%, 0%, 0%)" fill-opacity="1">
<use xlink:href="#glyph-0-12-c8e1e1c5" x="321.63636" y="412.257999"/>
</g>
<g fill="rgb(0%, 0%, 0%)" fill-opacity="1">
<use xlink:href="#glyph-0-15-c8e1e1c5" x="423.17057" y="412.257999"/>
</g>
<g fill="rgb(0%, 0%, 0%)" fill-opacity="1">
<use xlink:href="#glyph-0-12-c8e1e1c5" x="430.95457" y="412.257999"/>
</g>
<g fill="rgb(0%, 0%, 0%)" fill-opacity="1">
<use xlink:href="#glyph-0-16-c8e1e1c5" x="532.488718" y="412.257999"/>
</g>
<g fill="rgb(0%, 0%, 0%)" fill-opacity="1">
<use xlink:href="#glyph-0-12-c8e1e1c5" x="540.272718" y="412.257999"/>
</g>
<g fill="rgb(0%, 0%, 0%)" fill-opacity="1">
<use xlink:href="#glyph-1-0-c8e1e1c5" x="28.347694" y="265.999996"/>
</g>
<g fill="rgb(0%, 0%, 0%)" fill-opacity="1">
<use xlink:href="#glyph-2-0-c8e1e1c5" x="28.347695" y="255.107993"/>
</g>
<g fill="rgb(0%, 0%, 0%)" fill-opacity="1">
<use xlink:href="#glyph-3-0-c8e1e1c5" x="28.347695" y="247.323996"/>
</g>
<g fill="rgb(0%, 0%, 0%)" fill-opacity="1">
<use xlink:href="#glyph-4-0-c8e1e1c5" x="28.347696" y="239.539996"/>
</g>
<g fill="rgb(0%, 0%, 0%)" fill-opacity="1">
<use xlink:href="#glyph-5-0-c8e1e1c5" x="28.347696" y="234.877995"/>
</g>
<g fill="rgb(0%, 0%, 0%)" fill-opacity="1">
<use xlink:href="#glyph-6-0-c8e1e1c5" x="28.347696" y="227.877996"/>
</g>
<g fill="rgb(0%, 0%, 0%)" fill-opacity="1">
<use xlink:href="#glyph-7-0-c8e1e1c5" x="28.347697" y="223.985997"/>
</g>
<g fill="rgb(0%, 0%, 0%)" fill-opacity="1">
<use xlink:href="#glyph-8-0-c8e1e1c5" x="28.347697" y="215.431997"/>
</g>
<g fill="rgb(0%, 0%, 0%)" fill-opacity="1">
<use xlink:href="#glyph-9-0-c8e1e1c5" x="28.347697" y="212.323995"/>
</g>
<g fill="rgb(0%, 0%, 0%)" fill-opacity="1">
<use xlink:href="#glyph-10-0-c8e1e1c5" x="28.347698" y="200.661994"/>
</g>
<g fill="rgb(0%, 0%, 0%)" fill-opacity="1">
<use xlink:href="#glyph-11-0-c8e1e1c5" x="28.347698" y="192.877998"/>
</g>
<g fill="rgb(0%, 0%, 0%)" fill-opacity="1">
<use xlink:href="#glyph-12-0-c8e1e1c5" x="28.347699" y="188.985999"/>
</g>
<g fill="rgb(0%, 0%, 0%)" fill-opacity="1">
<use xlink:href="#glyph-7-1-c8e1e1c5" x="28.347699" y="184.323997"/>
</g>
<g fill="rgb(0%, 0%, 0%)" fill-opacity="1">
<use xlink:href="#glyph-8-1-c8e1e1c5" x="28.3477" y="172.661996"/>
</g>
<g fill="rgb(0%, 0%, 0%)" fill-opacity="1">
<use xlink:href="#glyph-6-1-c8e1e1c5" x="28.3477" y="165.661996"/>
</g>
<g fill="rgb(0%, 0%, 0%)" fill-opacity="1">
<use xlink:href="#glyph-0-17-c8e1e1c5" x="36.399697" y="286.32144"/>
</g>
<g fill="rgb(0%, 0%, 0%)" fill-opacity="1">
<use xlink:href="#glyph-0-18-c8e1e1c5" x="44.183698" y="286.32144"/>
</g>
<g fill="rgb(0%, 0%, 0%)" fill-opacity="1">
<use xlink:href="#glyph-0-12-c8e1e1c5" x="48.075696" y="286.32144"/>
</g>
<g fill="rgb(0%, 0%, 0%)" fill-opacity="1">
<use xlink:href="#glyph-0-12-c8e1e1c5" x="55.859697" y="286.32144"/>
</g>
<g fill="rgb(0%, 0%, 0%)" fill-opacity="1">
<use xlink:href="#glyph-13-0-c8e1e1c5" x="63.643697" y="286.32144"/>
</g>
<g fill="rgb(0%, 0%, 0%)" fill-opacity="1">
<use xlink:href="#glyph-0-13-c8e1e1c5" x="71.819696" y="286.32144"/>
</g>
<g fill="rgb(0%, 0%, 0%)" fill-opacity="1">
<use xlink:href="#glyph-0-12-c8e1e1c5" x="79.603697" y="286.32144"/>
</g>
<g fill="rgb(0%, 0%, 0%)" fill-opacity="1">
<use xlink:href="#glyph-14-0-c8e1e1c5" x="87.387697" y="286.32144"/>
</g>
<g fill="rgb(0%, 0%, 0%)" fill-opacity="1">
<use xlink:href="#glyph-0-13-c8e1e1c5" x="36.399697" y="169.727107"/>
</g>
<g fill="rgb(0%, 0%, 0%)" fill-opacity="1">
<use xlink:href="#glyph-0-18-c8e1e1c5" x="44.183698" y="169.727107"/>
</g>
<g fill="rgb(0%, 0%, 0%)" fill-opacity="1">
<use xlink:href="#glyph-0-12-c8e1e1c5" x="48.075696" y="169.727107"/>
</g>
<g fill="rgb(0%, 0%, 0%)" fill-opacity="1">
<use xlink:href="#glyph-0-12-c8e1e1c5" x="55.859697" y="169.727107"/>
</g>
<g fill="rgb(0%, 0%, 0%)" fill-opacity="1">
<use xlink:href="#glyph-13-0-c8e1e1c5" x="63.643697" y="169.727107"/>
</g>
<g fill="rgb(0%, 0%, 0%)" fill-opacity="1">
<use xlink:href="#glyph-0-13-c8e1e1c5" x="71.819696" y="169.727107"/>
</g>
<g fill="rgb(0%, 0%, 0%)" fill-opacity="1">
<use xlink:href="#glyph-0-12-c8e1e1c5" x="79.603697" y="169.727107"/>
</g>
<g fill="rgb(0%, 0%, 0%)" fill-opacity="1">
<use xlink:href="#glyph-14-1-c8e1e1c5" x="87.387697" y="169.727107"/>
</g>
<g fill="rgb(0%, 0%, 0%)" fill-opacity="1">
<use xlink:href="#glyph-0-13-c8e1e1c5" x="36.399697" y="53.132775"/>
</g>
<g fill="rgb(0%, 0%, 0%)" fill-opacity="1">
<use xlink:href="#glyph-0-18-c8e1e1c5" x="44.183698" y="53.132775"/>
</g>
<g fill="rgb(0%, 0%, 0%)" fill-opacity="1">
<use xlink:href="#glyph-0-14-c8e1e1c5" x="48.075696" y="53.132775"/>
</g>
<g fill="rgb(0%, 0%, 0%)" fill-opacity="1">
<use xlink:href="#glyph-0-12-c8e1e1c5" x="55.859697" y="53.132775"/>
</g>
<g fill="rgb(0%, 0%, 0%)" fill-opacity="1">
<use xlink:href="#glyph-13-0-c8e1e1c5" x="63.643697" y="53.132775"/>
</g>
<g fill="rgb(0%, 0%, 0%)" fill-opacity="1">
<use xlink:href="#glyph-0-13-c8e1e1c5" x="71.819696" y="53.132775"/>
</g>
<g fill="rgb(0%, 0%, 0%)" fill-opacity="1">
<use xlink:href="#glyph-0-12-c8e1e1c5" x="79.603697" y="53.132775"/>
</g>
<g fill="rgb(0%, 0%, 0%)" fill-opacity="1">
<use xlink:href="#glyph-14-1-c8e1e1c5" x="87.387697" y="53.132775"/>
</g>
<g fill="rgb(0%, 0%, 0%)" fill-opacity="1">
<use xlink:href="#glyph-15-0-c8e1e1c5" x="160.254063" y="28.94799"/>
</g>
<g fill="rgb(0%, 0%, 0%)" fill-opacity="1">
<use xlink:href="#glyph-15-1-c8e1e1c5" x="171.146061" y="28.94799"/>
</g>
<g fill="rgb(0%, 0%, 0%)" fill-opacity="1">
<use xlink:href="#glyph-15-2-c8e1e1c5" x="179.700062" y="28.94799"/>
</g>
<g fill="rgb(0%, 0%, 0%)" fill-opacity="1">
<use xlink:href="#glyph-15-3-c8e1e1c5" x="187.484059" y="28.94799"/>
</g>
<g fill="rgb(0%, 0%, 0%)" fill-opacity="1">
<use xlink:href="#glyph-15-4-c8e1e1c5" x="192.930058" y="28.94799"/>
</g>
<g fill="rgb(0%, 0%, 0%)" fill-opacity="1">
<use xlink:href="#glyph-15-5-c8e1e1c5" x="200.714055" y="28.94799"/>
</g>
<g fill="rgb(0%, 0%, 0%)" fill-opacity="1">
<use xlink:href="#glyph-15-6-c8e1e1c5" x="204.606054" y="28.94799"/>
</g>
<g fill="rgb(0%, 0%, 0%)" fill-opacity="1">
<use xlink:href="#glyph-15-7-c8e1e1c5" x="213.944066" y="28.94799"/>
</g>
<g fill="rgb(0%, 0%, 0%)" fill-opacity="1">
<use xlink:href="#glyph-15-2-c8e1e1c5" x="222.498068" y="28.94799"/>
</g>
<g fill="rgb(0%, 0%, 0%)" fill-opacity="1">
<use xlink:href="#glyph-15-2-c8e1e1c5" x="230.282064" y="28.94799"/>
</g>
<g fill="rgb(0%, 0%, 0%)" fill-opacity="1">
<use xlink:href="#glyph-15-8-c8e1e1c5" x="238.066061" y="28.94799"/>
</g>
<g fill="rgb(0%, 0%, 0%)" fill-opacity="1">
<use xlink:href="#glyph-15-5-c8e1e1c5" x="246.620062" y="28.94799"/>
</g>
<g fill="rgb(0%, 0%, 0%)" fill-opacity="1">
<use xlink:href="#glyph-15-9-c8e1e1c5" x="250.512061" y="28.94799"/>
</g>
<g fill="rgb(0%, 0%, 0%)" fill-opacity="1">
<use xlink:href="#glyph-15-10-c8e1e1c5" x="261.404059" y="28.94799"/>
</g>
<g fill="rgb(0%, 0%, 0%)" fill-opacity="1">
<use xlink:href="#glyph-15-2-c8e1e1c5" x="269.188056" y="28.94799"/>
</g>
<g fill="rgb(0%, 0%, 0%)" fill-opacity="1">
<use xlink:href="#glyph-15-3-c8e1e1c5" x="276.972053" y="28.94799"/>
</g>
<g fill="rgb(0%, 0%, 0%)" fill-opacity="1">
<use xlink:href="#glyph-15-5-c8e1e1c5" x="282.418052" y="28.94799"/>
</g>
<g fill="rgb(0%, 0%, 0%)" fill-opacity="1">
<use xlink:href="#glyph-15-6-c8e1e1c5" x="286.31005" y="28.94799"/>
</g>
<g fill="rgb(0%, 0%, 0%)" fill-opacity="1">
<use xlink:href="#glyph-15-11-c8e1e1c5" x="295.648048" y="28.94799"/>
</g>
<g fill="rgb(0%, 0%, 0%)" fill-opacity="1">
<use xlink:href="#glyph-15-12-c8e1e1c5" x="303.432045" y="28.94799"/>
</g>
<g fill="rgb(0%, 0%, 0%)" fill-opacity="1">
<use xlink:href="#glyph-15-7-c8e1e1c5" x="315.878044" y="28.94799"/>
</g>
<g fill="rgb(0%, 0%, 0%)" fill-opacity="1">
<use xlink:href="#glyph-15-13-c8e1e1c5" x="324.432045" y="28.94799"/>
</g>
<g fill="rgb(0%, 0%, 0%)" fill-opacity="1">
<use xlink:href="#glyph-15-2-c8e1e1c5" x="328.324044" y="28.94799"/>
</g>
<g fill="rgb(0%, 0%, 0%)" fill-opacity="1">
<use xlink:href="#glyph-15-14-c8e1e1c5" x="336.10804" y="28.94799"/>
</g>
<g fill="rgb(0%, 0%, 0%)" fill-opacity="1">
<use xlink:href="#glyph-15-5-c8e1e1c5" x="343.892037" y="28.94799"/>
</g>
<g fill="rgb(0%, 0%, 0%)" fill-opacity="1">
<use xlink:href="#glyph-15-15-c8e1e1c5" x="347.784036" y="28.94799"/>
</g>
<g fill="rgb(0%, 0%, 0%)" fill-opacity="1">
<use xlink:href="#glyph-15-16-c8e1e1c5" x="352.446038" y="28.94799"/>
</g>
<g fill="rgb(0%, 0%, 0%)" fill-opacity="1">
<use xlink:href="#glyph-15-17-c8e1e1c5" x="360.230035" y="28.94799"/>
</g>
<g fill="rgb(0%, 0%, 0%)" fill-opacity="1">
<use xlink:href="#glyph-15-17-c8e1e1c5" x="368.014032" y="28.94799"/>
</g>
<g fill="rgb(0%, 0%, 0%)" fill-opacity="1">
<use xlink:href="#glyph-15-17-c8e1e1c5" x="375.798029" y="28.94799"/>
</g>
<g fill="rgb(0%, 0%, 0%)" fill-opacity="1">
<use xlink:href="#glyph-15-17-c8e1e1c5" x="383.582025" y="28.94799"/>
</g>
<g fill="rgb(0%, 0%, 0%)" fill-opacity="1">
<use xlink:href="#glyph-15-17-c8e1e1c5" x="391.366022" y="28.94799"/>
</g>
<g fill="rgb(0%, 0%, 0%)" fill-opacity="1">
<use xlink:href="#glyph-15-17-c8e1e1c5" x="399.150019" y="28.94799"/>
</g>
<g fill="rgb(0%, 0%, 0%)" fill-opacity="1">
<use xlink:href="#glyph-15-17-c8e1e1c5" x="406.934016" y="28.94799"/>
</g>
<g fill="rgb(0%, 0%, 0%)" fill-opacity="1">
<use xlink:href="#glyph-15-17-c8e1e1c5" x="414.718012" y="28.94799"/>
</g>
<g fill="rgb(0%, 0%, 0%)" fill-opacity="1">
<use xlink:href="#glyph-15-5-c8e1e1c5" x="422.502024" y="28.94799"/>
</g>
<g fill="rgb(0%, 0%, 0%)" fill-opacity="1">
<use xlink:href="#glyph-15-18-c8e1e1c5" x="426.394023" y="28.94799"/>
</g>
<g fill="rgb(0%, 0%, 0%)" fill-opacity="1">
<use xlink:href="#glyph-15-19-c8e1e1c5" x="434.17802" y="28.94799"/>
</g>
<g fill="rgb(0%, 0%, 0%)" fill-opacity="1">
<use xlink:href="#glyph-15-12-c8e1e1c5" x="438.840007" y="28.94799"/>
</g>
<g fill="rgb(0%, 0%, 0%)" fill-opacity="1">
<use xlink:href="#glyph-15-2-c8e1e1c5" x="451.286022" y="28.94799"/>
</g>
<g fill="rgb(0%, 0%, 0%)" fill-opacity="1">
<use xlink:href="#glyph-15-3-c8e1e1c5" x="459.070018" y="28.94799"/>
</g>
<g fill="rgb(0%, 0%, 0%)" fill-opacity="1">
<use xlink:href="#glyph-15-5-c8e1e1c5" x="464.516033" y="28.94799"/>
</g>
<g fill="rgb(0%, 0%, 0%)" fill-opacity="1">
<use xlink:href="#glyph-15-13-c8e1e1c5" x="468.408031" y="28.94799"/>
</g>
<g fill="rgb(0%, 0%, 0%)" fill-opacity="1">
<use xlink:href="#glyph-15-20-c8e1e1c5" x="472.30003" y="28.94799"/>
</g>
<g fill="rgb(0%, 0%, 0%)" fill-opacity="1">
<use xlink:href="#glyph-15-20-c8e1e1c5" x="480.854016" y="28.94799"/>
</g>
<g fill="rgb(0%, 0%, 0%)" fill-opacity="1">
<use xlink:href="#glyph-15-18-c8e1e1c5" x="489.408001" y="28.94799"/>
</g>
<g fill="rgb(0%, 0%, 0%)" fill-opacity="1">
<use xlink:href="#glyph-15-1-c8e1e1c5" x="497.191998" y="28.94799"/>
</g>
<g fill="rgb(0%, 0%, 0%)" fill-opacity="1">
<use xlink:href="#glyph-15-7-c8e1e1c5" x="505.745984" y="28.94799"/>
</g>
<g fill="rgb(0%, 0%, 0%)" fill-opacity="1">
<use xlink:href="#glyph-15-14-c8e1e1c5" x="514.29997" y="28.94799"/>
</g>
<g fill="rgb(0%, 0%, 0%)" fill-opacity="1">
<use xlink:href="#glyph-15-21-c8e1e1c5" x="522.083966" y="28.94799"/>
</g>
<path fill="none" stroke-width="1.5" stroke-linecap="butt" stroke-linejoin="miter" stroke="rgb(50.196081%, 0%, 50.196081%)" stroke-opacity="1" stroke-miterlimit="2" d="M 124.863281 374.863281 L 135.796875 350.742188 L 146.726562 351.027344 L 157.660156 330.171875 L 168.589844 305.144531 L 179.523438 293.148438 L 190.453125 271.390625 L 201.386719 265.941406 L 212.316406 256.804688 L 223.25 254.023438 L 234.183594 250.394531 L 245.113281 167.152344 L 256.046875 186.75 L 266.976562 184.121094 L 277.910156 182.117188 L 288.839844 145.820312 L 299.773438 136.375 L 310.703125 120.355469 L 321.636719 145.703125 L 332.566406 137.394531 L 343.5 133.402344 L 354.433594 104.597656 L 365.363281 109.488281 L 376.296875 125.964844 L 387.226562 126.417969 L 398.160156 112.957031 L 409.089844 113.503906 L 420.023438 113.84375 L 430.953125 92.992188 L 441.886719 99.675781 L 452.816406 106.929688 L 463.75 107.09375 L 474.683594 52.136719 L 485.613281 93.445312 L 496.546875 88.023438 L 507.476562 74.621094 L 518.410156 89.605469 L 529.339844 85.535156 L 540.273438 92.898438 L 551.203125 84.5625 L 562.136719 82.515625 "/>
<path fill-rule="nonzero" fill="rgb(50.196081%, 0%, 50.196081%)" fill-opacity="1" d="M 128.035156 374.863281 C 128.035156 370.632812 121.691406 370.632812 121.691406 374.863281 C 121.691406 379.09375 128.035156 379.09375 128.035156 374.863281 Z M 128.035156 374.863281 "/>
<path fill-rule="nonzero" fill="rgb(50.196081%, 0%, 50.196081%)" fill-opacity="1" d="M 138.96875 350.742188 C 138.96875 346.511719 132.621094 346.511719 132.621094 350.742188 C 132.621094 354.96875 138.96875 354.96875 138.96875 350.742188 Z M 138.96875 350.742188 "/>
<path fill-rule="nonzero" fill="rgb(50.196081%, 0%, 50.196081%)" fill-opacity="1" d="M 149.898438 351.027344 C 149.898438 346.796875 143.554688 346.796875 143.554688 351.027344 C 143.554688 355.257812 149.898438 355.257812 149.898438 351.027344 Z M 149.898438 351.027344 "/>
<path fill-rule="nonzero" fill="rgb(50.196081%, 0%, 50.196081%)" fill-opacity="1" d="M 160.832031 330.171875 C 160.832031 325.941406 154.488281 325.941406 154.488281 330.171875 C 154.488281 334.402344 160.832031 334.402344 160.832031 330.171875 Z M 160.832031 330.171875 "/>
<path fill-rule="nonzero" fill="rgb(50.196081%, 0%, 50.196081%)" fill-opacity="1" d="M 171.761719 305.144531 C 171.761719 300.917969 165.417969 300.917969 165.417969 305.144531 C 165.417969 309.375 171.761719 309.375 171.761719 305.144531 Z M 171.761719 305.144531 "/>
<path fill-rule="nonzero" fill="rgb(50.196081%, 0%, 50.196081%)" fill-opacity="1" d="M 182.695312 293.148438 C 182.695312 288.917969 176.351562 288.917969 176.351562 293.148438 C 176.351562 297.378906 182.695312 297.378906 182.695312 293.148438 Z M 182.695312 293.148438 "/>
<path fill-rule="nonzero" fill="rgb(50.196081%, 0%, 50.196081%)" fill-opacity="1" d="M 193.628906 271.390625 C 193.628906 267.160156 187.28125 267.160156 187.28125 271.390625 C 187.28125 275.621094 193.628906 275.621094 193.628906 271.390625 Z M 193.628906 271.390625 "/>
<path fill-rule="nonzero" fill="rgb(50.196081%, 0%, 50.196081%)" fill-opacity="1" d="M 204.558594 265.941406 C 204.558594 261.710938 198.214844 261.710938 198.214844 265.941406 C 198.214844 270.171875 204.558594 270.171875 204.558594 265.941406 Z M 204.558594 265.941406 "/>
<path fill-rule="nonzero" fill="rgb(50.196081%, 0%, 50.196081%)" fill-opacity="1" d="M 215.492188 256.804688 C 215.492188 252.574219 209.144531 252.574219 209.144531 256.804688 C 209.144531 261.035156 215.492188 261.035156 215.492188 256.804688 Z M 215.492188 256.804688 "/>
<path fill-rule="nonzero" fill="rgb(50.196081%, 0%, 50.196081%)" fill-opacity="1" d="M 226.421875 254.023438 C 226.421875 249.796875 220.078125 249.796875 220.078125 254.023438 C 220.078125 258.253906 226.421875 258.253906 226.421875 254.023438 Z M 226.421875 254.023438 "/>
<path fill-rule="nonzero" fill="rgb(50.196081%, 0%, 50.196081%)" fill-opacity="1" d="M 237.355469 250.394531 C 237.355469 246.164062 231.007812 246.164062 231.007812 250.394531 C 231.007812 254.625 237.355469 254.625 237.355469 250.394531 Z M 237.355469 250.394531 "/>
<path fill-rule="nonzero" fill="rgb(50.196081%, 0%, 50.196081%)" fill-opacity="1" d="M 248.285156 167.152344 C 248.285156 162.921875 241.941406 162.921875 241.941406 167.152344 C 241.941406 171.378906 248.285156 171.378906 248.285156 167.152344 Z M 248.285156 167.152344 "/>
<path fill-rule="nonzero" fill="rgb(50.196081%, 0%, 50.196081%)" fill-opacity="1" d="M 259.21875 186.75 C 259.21875 182.519531 252.871094 182.519531 252.871094 186.75 C 252.871094 190.980469 259.21875 190.980469 259.21875 186.75 Z M 259.21875 186.75 "/>
<path fill-rule="nonzero" fill="rgb(50.196081%, 0%, 50.196081%)" fill-opacity="1" d="M 270.148438 184.121094 C 270.148438 179.890625 263.804688 179.890625 263.804688 184.121094 C 263.804688 188.351562 270.148438 188.351562 270.148438 184.121094 Z M 270.148438 184.121094 "/>
<path fill-rule="nonzero" fill="rgb(50.196081%, 0%, 50.196081%)" fill-opacity="1" d="M 281.082031 182.117188 C 281.082031 177.886719 274.738281 177.886719 274.738281 182.117188 C 274.738281 186.34375 281.082031 186.34375 281.082031 182.117188 Z M 281.082031 182.117188 "/>
<path fill-rule="nonzero" fill="rgb(50.196081%, 0%, 50.196081%)" fill-opacity="1" d="M 292.011719 145.820312 C 292.011719 141.589844 285.667969 141.589844 285.667969 145.820312 C 285.667969 150.050781 292.011719 150.050781 292.011719 145.820312 Z M 292.011719 145.820312 "/>
<path fill-rule="nonzero" fill="rgb(50.196081%, 0%, 50.196081%)" fill-opacity="1" d="M 302.945312 136.375 C 302.945312 132.144531 296.601562 132.144531 296.601562 136.375 C 296.601562 140.605469 302.945312 140.605469 302.945312 136.375 Z M 302.945312 136.375 "/>
<path fill-rule="nonzero" fill="rgb(50.196081%, 0%, 50.196081%)" fill-opacity="1" d="M 313.878906 120.355469 C 313.878906 116.125 307.53125 116.125 307.53125 120.355469 C 307.53125 124.585938 313.878906 124.585938 313.878906 120.355469 Z M 313.878906 120.355469 "/>
<path fill-rule="nonzero" fill="rgb(50.196081%, 0%, 50.196081%)" fill-opacity="1" d="M 324.808594 145.703125 C 324.808594 141.472656 318.464844 141.472656 318.464844 145.703125 C 318.464844 149.933594 324.808594 149.933594 324.808594 145.703125 Z M 324.808594 145.703125 "/>
<path fill-rule="nonzero" fill="rgb(50.196081%, 0%, 50.196081%)" fill-opacity="1" d="M 335.742188 137.394531 C 335.742188 133.164062 329.394531 133.164062 329.394531 137.394531 C 329.394531 141.625 335.742188 141.625 335.742188 137.394531 Z M 335.742188 137.394531 "/>
<path fill-rule="nonzero" fill="rgb(50.196081%, 0%, 50.196081%)" fill-opacity="1" d="M 346.671875 133.402344 C 346.671875 129.171875 340.328125 129.171875 340.328125 133.402344 C 340.328125 137.632812 346.671875 137.632812 346.671875 133.402344 Z M 346.671875 133.402344 "/>
<path fill-rule="nonzero" fill="rgb(50.196081%, 0%, 50.196081%)" fill-opacity="1" d="M 357.605469 104.597656 C 357.605469 100.367188 351.257812 100.367188 351.257812 104.597656 C 351.257812 108.828125 357.605469 108.828125 357.605469 104.597656 Z M 357.605469 104.597656 "/>
<path fill-rule="nonzero" fill="rgb(50.196081%, 0%, 50.196081%)" fill-opacity="1" d="M 368.535156 109.488281 C 368.535156 105.257812 362.191406 105.257812 362.191406 109.488281 C 362.191406 113.71875 368.535156 113.71875 368.535156 109.488281 Z M 368.535156 109.488281 "/>
<path fill-rule="nonzero" fill="rgb(50.196081%, 0%, 50.196081%)" fill-opacity="1" d="M 379.46875 125.964844 C 379.46875 121.734375 373.121094 121.734375 373.121094 125.964844 C 373.121094 130.195312 379.46875 130.195312 379.46875 125.964844 Z M 379.46875 125.964844 "/>
<path fill-rule="nonzero" fill="rgb(50.196081%, 0%, 50.196081%)" fill-opacity="1" d="M 390.398438 126.417969 C 390.398438 122.1875 384.054688 122.1875 384.054688 126.417969 C 384.054688 130.648438 390.398438 130.648438 390.398438 126.417969 Z M 390.398438 126.417969 "/>
<path fill-rule="nonzero" fill="rgb(50.196081%, 0%, 50.196081%)" fill-opacity="1" d="M 401.332031 112.957031 C 401.332031 108.726562 394.988281 108.726562 394.988281 112.957031 C 394.988281 117.1875 401.332031 117.1875 401.332031 112.957031 Z M 401.332031 112.957031 "/>
<path fill-rule="nonzero" fill="rgb(50.196081%, 0%, 50.196081%)" fill-opacity="1" d="M 412.261719 113.503906 C 412.261719 109.277344 405.917969 109.277344 405.917969 113.503906 C 405.917969 117.734375 412.261719 117.734375 412.261719 113.503906 Z M 412.261719 113.503906 "/>
<path fill-rule="nonzero" fill="rgb(50.196081%, 0%, 50.196081%)" fill-opacity="1" d="M 423.195312 113.84375 C 423.195312 109.613281 416.851562 109.613281 416.851562 113.84375 C 416.851562 118.074219 423.195312 118.074219 423.195312 113.84375 Z M 423.195312 113.84375 "/>
<path fill-rule="nonzero" fill="rgb(50.196081%, 0%, 50.196081%)" fill-opacity="1" d="M 434.128906 92.992188 C 434.128906 88.761719 427.78125 88.761719 427.78125 92.992188 C 427.78125 97.222656 434.128906 97.222656 434.128906 92.992188 Z M 434.128906 92.992188 "/>
<path fill-rule="nonzero" fill="rgb(50.196081%, 0%, 50.196081%)" fill-opacity="1" d="M 445.058594 99.675781 C 445.058594 95.449219 438.714844 95.449219 438.714844 99.675781 C 438.714844 103.90625 445.058594 103.90625 445.058594 99.675781 Z M 445.058594 99.675781 "/>
<path fill-rule="nonzero" fill="rgb(50.196081%, 0%, 50.196081%)" fill-opacity="1" d="M 455.992188 106.929688 C 455.992188 102.699219 449.644531 102.699219 449.644531 106.929688 C 449.644531 111.160156 455.992188 111.160156 455.992188 106.929688 Z M 455.992188 106.929688 "/>
<path fill-rule="nonzero" fill="rgb(50.196081%, 0%, 50.196081%)" fill-opacity="1" d="M 466.921875 107.09375 C 466.921875 102.863281 460.578125 102.863281 460.578125 107.09375 C 460.578125 111.324219 466.921875 111.324219 466.921875 107.09375 Z M 466.921875 107.09375 "/>
<path fill-rule="nonzero" fill="rgb(50.196081%, 0%, 50.196081%)" fill-opacity="1" d="M 477.855469 52.136719 C 477.855469 47.90625 471.507812 47.90625 471.507812 52.136719 C 471.507812 56.367188 477.855469 56.367188 477.855469 52.136719 Z M 477.855469 52.136719 "/>
<path fill-rule="nonzero" fill="rgb(50.196081%, 0%, 50.196081%)" fill-opacity="1" d="M 488.785156 93.445312 C 488.785156 89.214844 482.441406 89.214844 482.441406 93.445312 C 482.441406 97.675781 488.785156 97.675781 488.785156 93.445312 Z M 488.785156 93.445312 "/>
<path fill-rule="nonzero" fill="rgb(50.196081%, 0%, 50.196081%)" fill-opacity="1" d="M 499.71875 88.023438 C 499.71875 83.792969 493.371094 83.792969 493.371094 88.023438 C 493.371094 92.253906 499.71875 92.253906 499.71875 88.023438 Z M 499.71875 88.023438 "/>
<path fill-rule="nonzero" fill="rgb(50.196081%, 0%, 50.196081%)" fill-opacity="1" d="M 510.648438 74.621094 C 510.648438 70.390625 504.304688 70.390625 504.304688 74.621094 C 504.304688 78.851562 510.648438 78.851562 510.648438 74.621094 Z M 510.648438 74.621094 "/>
<path fill-rule="nonzero" fill="rgb(50.196081%, 0%, 50.196081%)" fill-opacity="1" d="M 521.582031 89.605469 C 521.582031 85.375 515.238281 85.375 515.238281 89.605469 C 515.238281 93.832031 521.582031 93.832031 521.582031 89.605469 Z M 521.582031 89.605469 "/>
<path fill-rule="nonzero" fill="rgb(50.196081%, 0%, 50.196081%)" fill-opacity="1" d="M 532.511719 85.535156 C 532.511719 81.304688 526.167969 81.304688 526.167969 85.535156 C 526.167969 89.765625 532.511719 89.765625 532.511719 85.535156 Z M 532.511719 85.535156 "/>
<path fill-rule="nonzero" fill="rgb(50.196081%, 0%, 50.196081%)" fill-opacity="1" d="M 543.445312 92.898438 C 543.445312 88.667969 537.101562 88.667969 537.101562 92.898438 C 537.101562 97.128906 543.445312 97.128906 543.445312 92.898438 Z M 543.445312 92.898438 "/>
<path fill-rule="nonzero" fill="rgb(50.196081%, 0%, 50.196081%)" fill-opacity="1" d="M 554.378906 84.5625 C 554.378906 80.332031 548.03125 80.332031 548.03125 84.5625 C 548.03125 88.792969 554.378906 88.792969 554.378906 84.5625 Z M 554.378906 84.5625 "/>
<path fill-rule="nonzero" fill="rgb(50.196081%, 0%, 50.196081%)" fill-opacity="1" d="M 565.308594 82.515625 C 565.308594 78.285156 558.964844 78.285156 558.964844 82.515625 C 558.964844 86.746094 565.308594 86.746094 565.308594 82.515625 Z M 565.308594 82.515625 "/>
<path fill="none" stroke-width="1" stroke-linecap="butt" stroke-linejoin="miter" stroke="rgb(0%, 0%, 0%)" stroke-opacity="1" stroke-miterlimit="1.154701" d="M 103 391.5 L 103 396.5 "/>
<path fill="none" stroke-width="1" stroke-linecap="butt" stroke-linejoin="miter" stroke="rgb(0%, 0%, 0%)" stroke-opacity="1" stroke-miterlimit="1.154701" d="M 212.316406 391.5 L 212.316406 396.5 "/>
<path fill="none" stroke-width="1" stroke-linecap="butt" stroke-linejoin="miter" stroke="rgb(0%, 0%, 0%)" stroke-opacity="1" stroke-miterlimit="1.154701" d="M 321.636719 391.5 L 321.636719 396.5 "/>
<path fill="none" stroke-width="1" stroke-linecap="butt" stroke-linejoin="miter" stroke="rgb(0%, 0%, 0%)" stroke-opacity="1" stroke-miterlimit="1.154701" d="M 430.953125 391.5 L 430.953125 396.5 "/>
<path fill="none" stroke-width="1" stroke-linecap="butt" stroke-linejoin="miter" stroke="rgb(0%, 0%, 0%)" stroke-opacity="1" stroke-miterlimit="1.154701" d="M 540.273438 391.5 L 540.273438 396.5 "/>
<path fill="none" stroke-width="1" stroke-linecap="butt" stroke-linejoin="miter" stroke="rgb(0%, 0%, 0%)" stroke-opacity="1" stroke-miterlimit="1.154701" d="M 102.5 281.34375 L 97.5 281.34375 "/>
<path fill="none" stroke-width="1" stroke-linecap="butt" stroke-linejoin="miter" stroke="rgb(0%, 0%, 0%)" stroke-opacity="1" stroke-miterlimit="1.154701" d="M 102.5 164.75 L 97.5 164.75 "/>
<path fill="none" stroke-width="1" stroke-linecap="butt" stroke-linejoin="miter" stroke="rgb(0%, 0%, 0%)" stroke-opacity="1" stroke-miterlimit="1.154701" d="M 102.5 48.15625 L 97.5 48.15625 "/>
<path fill="none" stroke-width="1" stroke-linecap="butt" stroke-linejoin="miter" stroke="rgb(0%, 0%, 0%)" stroke-opacity="1" stroke-miterlimit="1.154701" d="M 102.5 391 L 584.5 391 "/>
<path fill="none" stroke-width="1" stroke-linecap="butt" stroke-linejoin="miter" stroke="rgb(0%, 0%, 0%)" stroke-opacity="1" stroke-miterlimit="1.154701" d="M 103 391.5 L 103 35.5 "/>
<path fill="none" stroke-width="1" stroke-linecap="butt" stroke-linejoin="miter" stroke="rgb(0%, 0%, 0%)" stroke-opacity="1" stroke-miterlimit="1.154701" d="M 102.5 36 L 584.5 36 "/>
<path fill="none" stroke-width="1" stroke-linecap="butt" stroke-linejoin="miter" stroke="rgb(0%, 0%, 0%)" stroke-opacity="1" stroke-miterlimit="1.154701" d="M 584 391.5 L 584 35.5 "/>
</svg>
